<svg width="14" height="9" viewBox="0 0 14 9" fill="none" xmlns="http://www.w3.org/2000/svg">
<path fill-rule="evenodd" clip-rule="evenodd" d="M0.381436 0H13.6337C13.7328 0 13.8279 0.038645 13.898 0.107384C13.9682 0.176124 14.0076 0.269322 14.0076 0.366533V8.63349C14.0076 8.7307 13.9682 8.8239 13.898 8.89264C13.8279 8.96138 13.7328 9.00002 13.6337 9.00002H0.381436C0.282279 9.00002 0.187185 8.96138 0.11707 8.89264C0.0469558 8.8239 0.00756836 8.7307 0.00756836 8.63349V0.366533C0.00756836 0.269322 0.0469558 0.176124 0.11707 0.107384C0.187185 0.038645 0.282279 0 0.381436 0ZM1.70009 0.742983L7.00503 4.07649L12.3479 0.742983H1.70009ZM13.2598 1.04264L7.22733 4.80466C7.16532 4.84662 7.09176 4.86905 7.01641 4.86905C6.94106 4.86905 6.8675 4.84662 6.80548 4.80466L0.742691 1.00552V8.26448H13.2649L13.2598 1.04264Z" fill="white"/>
</svg>
