<svg width="15" height="9" viewBox="0 0 15 9" fill="none" xmlns="http://www.w3.org/2000/svg">
<path fill-rule="evenodd" clip-rule="evenodd" d="M0.408629 0H14.6075C14.7137 0 14.8156 0.038645 14.8907 0.107384C14.9658 0.176124 15.008 0.269322 15.008 0.366533V8.63349C15.008 8.7307 14.9658 8.8239 14.8907 8.89264C14.8156 8.96138 14.7137 9.00002 14.6075 9.00002H0.408629C0.302389 9.00002 0.200503 8.96138 0.12538 8.89264C0.0502574 8.8239 0.00805664 8.7307 0.00805664 8.63349V0.366533C0.00805664 0.269322 0.0502574 0.176124 0.12538 0.107384C0.200503 0.038645 0.302389 0 0.408629 0ZM1.82147 0.742983L7.50534 4.07649L13.2298 0.742983H1.82147ZM14.2069 1.04264L7.74352 4.80466C7.67708 4.84662 7.59826 4.86905 7.51753 4.86905C7.4368 4.86905 7.35798 4.84662 7.29154 4.80466L0.795688 1.00552V8.26448H14.2123L14.2069 1.04264Z" fill="#009FE3"/>
</svg>
