<svg width="35" height="40" viewBox="0 0 35 40" fill="none" xmlns="http://www.w3.org/2000/svg">
<g clip-path="url(#clip0_117_145)">
<path d="M25.8282 11.6861C23.3102 10.2424 19.6482 11.53 16.5208 14.9658C16.501 14.9878 16.4837 15.0118 16.4691 15.0374C16.4408 15.0552 16.4151 15.0769 16.3929 15.1019C15.5205 16.0769 14.75 17.1379 14.0934 18.2684C13.437 19.396 12.8994 20.5882 12.4894 21.826C11.446 24.6531 10.9976 29.8262 14.2356 31.6938C14.9239 32.0796 15.7024 32.2773 16.4921 32.2666C17.6418 32.2666 18.9195 31.8857 20.2288 31.1323C22.4033 29.882 24.4428 27.7409 25.9777 25.1C28.0272 21.5682 28.8277 17.6239 28.0689 14.8083C27.6779 13.3847 26.9047 12.3019 25.8282 11.6861ZM25.2893 24.719C22.892 28.8566 19.3205 31.4961 16.5064 31.4947C15.8496 31.504 15.202 31.34 14.6294 31.0192C11.9605 29.4796 12.2063 24.8765 13.2339 22.0995C13.2339 22.0995 13.2339 22.0995 13.2339 22.0924C13.6256 20.9035 14.14 19.7583 14.7688 18.6752C15.3989 17.5915 16.1381 16.5747 16.975 15.6404C16.9939 15.6186 17.0108 15.5951 17.0253 15.5702C17.0534 15.5532 17.0786 15.532 17.1 15.5072C19.9371 12.3936 23.2829 11.1361 25.4387 12.3735C26.3298 12.8848 26.9751 13.8057 27.3071 15.0274C28.007 17.6426 27.2367 21.3562 25.295 24.7147L25.2893 24.719Z" fill="white"/>
<path d="M34.2057 11.1869C34.2057 11.1869 34.2057 11.1869 34.2057 11.1754C34.2071 11.1573 34.2071 11.1391 34.2057 11.121C34.2064 11.1119 34.2064 11.1028 34.2057 11.0938C34.2014 11.0724 34.1941 11.0517 34.1842 11.0322V11.0164C34.1712 10.9919 34.1563 10.9684 34.1396 10.9463L34.1267 10.9319C34.1133 10.9157 34.0984 10.9009 34.0821 10.8875C34.0758 10.8827 34.069 10.8784 34.062 10.8747L34.0304 10.8517L30.6558 8.92401L31.7237 5.92931C31.7288 5.91488 31.7327 5.90002 31.7352 5.88491C31.7352 5.87345 31.7352 5.86342 31.7423 5.8534C31.7431 5.841 31.7431 5.82856 31.7423 5.81616C31.7423 5.80327 31.7423 5.78895 31.7423 5.77606V5.75171C31.7423 5.73453 31.7423 5.71734 31.7337 5.70016C31.7313 5.6919 31.7284 5.68377 31.7251 5.67581C31.7251 5.66149 31.715 5.64573 31.7078 5.62998C31.7026 5.62012 31.6969 5.61056 31.6906 5.60133L31.669 5.56553L31.6475 5.54261L31.6187 5.49965C31.6187 5.49965 31.6044 5.48962 31.5972 5.48389C31.5842 5.47274 31.5702 5.46268 31.5555 5.45382L31.1243 5.20605C30.2141 4.679 29.3039 4.15387 28.3936 3.63064L22.5183 0.253543C22.4381 0.207742 22.3444 0.191264 22.2534 0.206952C22.1623 0.222641 22.0796 0.269511 22.0196 0.339474L19.9485 2.76417L16.5998 0.837876C16.5397 0.803448 16.4716 0.78533 16.4022 0.78533C16.3329 0.78533 16.2647 0.803448 16.2046 0.837876L11.7205 3.41581L11.6989 3.43157L11.6702 3.45162C11.6561 3.46328 11.6427 3.47571 11.6299 3.48886L11.6098 3.51034C11.596 3.52854 11.5836 3.54769 11.5725 3.56763L11.5638 3.58195C11.5519 3.6073 11.5423 3.63366 11.5351 3.66072L10.5017 7.99166L8.93229 9.64011L6.02049 9.58711H6.00468C5.98743 9.58711 5.97162 9.58711 5.95582 9.58711H5.93426H5.91126C5.89659 9.5915 5.88219 9.59676 5.86815 9.60287C5.79862 9.62987 5.73863 9.6767 5.69568 9.73749V9.74609L5.67987 9.769L2.50362 15.2385V15.25C2.49526 15.2652 2.48805 15.281 2.48206 15.2972L2.47344 15.3187C2.46761 15.3379 2.46329 15.3576 2.46051 15.3775C2.46115 15.3812 2.46115 15.3851 2.46051 15.3889C2.45836 15.4123 2.45836 15.4357 2.46051 15.4591C2.45971 15.4657 2.45971 15.4725 2.46051 15.4791C2.46198 15.4961 2.46487 15.5128 2.46913 15.5293C2.47086 15.5376 2.47326 15.5457 2.47632 15.5536C2.48008 15.568 2.48538 15.5819 2.49213 15.5951C2.49498 15.6044 2.49935 15.6131 2.50506 15.6209C2.50733 15.6274 2.51022 15.6336 2.51368 15.6395L4.01701 18.1344L3.36308 20.3099L0.158087 23.3419L0.136528 23.3619C0.126766 23.3693 0.117633 23.3774 0.109221 23.3862C0.100781 23.3952 0.0930901 23.4047 0.0862258 23.4149C0.0766974 23.4256 0.0680466 23.4371 0.0603559 23.4493V23.4593C0.0568781 23.4657 0.0539918 23.4724 0.0517326 23.4793C0.044644 23.4923 0.038403 23.5057 0.0330488 23.5194C0.0290352 23.5307 0.0256761 23.5422 0.0229883 23.5538C0.0187526 23.5664 0.015862 23.5793 0.014365 23.5925C0.0129526 23.6053 0.0129526 23.6183 0.014365 23.6312C0.0136634 23.6383 0.0136634 23.6455 0.014365 23.6526V28.8085C0.014365 28.8085 0.014365 28.8171 0.014365 28.8214C0.014365 28.8257 0.014365 28.8543 0.014365 28.8701V28.8959C0.0190716 28.9154 0.0253189 28.9346 0.0330488 28.9532V28.9646C0.0658107 29.0436 0.123935 29.1096 0.198329 29.1522L3.54417 31.0771L2.47344 34.0747C2.44264 34.1614 2.44331 34.2562 2.47534 34.3426C2.50737 34.4289 2.56874 34.5013 2.64878 34.5473L8.51837 37.9201L10.243 38.9226L11.6802 39.7476C11.708 39.7628 11.7374 39.7748 11.7679 39.7834H11.7895C11.8186 39.7908 11.8485 39.7946 11.8786 39.7948C11.9101 39.7946 11.9414 39.7908 11.972 39.7834L11.9993 39.7748C12.0199 39.7679 12.0401 39.7598 12.0597 39.7504L12.0899 39.7332C12.1071 39.7221 12.1234 39.7097 12.1387 39.696C12.1473 39.6874 12.1574 39.6803 12.166 39.6702L12.1804 39.6573L14.2514 37.2369L17.5973 39.1618H17.6073C17.6336 39.1751 17.661 39.1861 17.6892 39.1947H17.7094C17.7325 39.2003 17.7561 39.2036 17.7798 39.2048H17.7942H17.81C17.8317 39.2045 17.8534 39.2021 17.8746 39.1976L17.9034 39.1904H17.9163C17.9399 39.183 17.9626 39.1729 17.9839 39.1604C18.7571 38.7183 19.5303 38.2738 20.3035 37.827L22.4594 36.5824L22.4723 36.5738L22.5169 36.5423L22.5355 36.5237C22.5468 36.5134 22.5574 36.5024 22.5672 36.4908L22.5844 36.4693C22.5934 36.4564 22.6015 36.4431 22.6088 36.4292C22.6135 36.422 22.6174 36.4143 22.6203 36.4063C22.6275 36.3919 22.6318 36.3776 22.6376 36.3633L22.6462 36.3375L23.681 32.008L25.2476 30.3639L28.1637 30.4097C28.1947 30.4095 28.2256 30.4057 28.2557 30.3982L28.2787 30.3911C28.3003 30.384 28.3214 30.3754 28.3419 30.3653L28.3663 30.3524C28.3909 30.3381 28.4136 30.3208 28.4339 30.3009C28.4566 30.2786 28.4764 30.2536 28.4928 30.2264C29.4988 28.5078 30.515 26.7476 31.4966 25.0476L31.6575 24.7697C31.6581 24.7645 31.6581 24.7592 31.6575 24.754C31.6647 24.7423 31.6705 24.7298 31.6748 24.7167L31.6877 24.6809L31.6964 24.6451C31.6964 24.6322 31.6964 24.6194 31.6964 24.6065V24.5692C31.6971 24.5568 31.6971 24.5444 31.6964 24.532C31.6964 24.5191 31.6964 24.5062 31.6964 24.4933C31.6964 24.4804 31.6964 24.469 31.6863 24.4561C31.6835 24.4446 31.6791 24.4335 31.6734 24.4232C31.6688 24.4098 31.663 24.3968 31.6561 24.3845V24.3702L30.1815 21.8638L30.8297 19.6855L34.0735 16.6306C34.0843 16.6198 34.0944 16.6084 34.1037 16.5962L34.1252 16.5719C34.1324 16.5604 34.1382 16.549 34.1439 16.5375C34.1502 16.5268 34.156 16.5159 34.1612 16.5046C34.1612 16.4946 34.1684 16.4831 34.1727 16.4716C34.1778 16.4586 34.1822 16.4452 34.1856 16.4315C34.1856 16.4215 34.1856 16.4115 34.1856 16.4015C34.1856 16.3914 34.1856 16.37 34.1856 16.3542V11.1869H34.2057ZM32.7139 11.0121L30.719 11.4275L30.1815 10.2574L30.3856 9.6845L32.7139 11.0121ZM22.4076 1.09997L27.5816 4.07462L25.0075 7.08222L23.1895 6.03529L22.6591 4.42837C22.6591 4.41835 22.6505 4.40832 22.6462 4.39686C22.6404 4.38262 22.6336 4.36875 22.6261 4.35533L22.6175 4.34387C22.6066 4.32601 22.5941 4.30922 22.5801 4.29375C22.574 4.28598 22.5667 4.27922 22.5585 4.2737C22.5478 4.262 22.5362 4.25099 22.524 4.24076C22.515 4.23419 22.5054 4.22844 22.4953 4.22357L22.4594 4.20065L22.4292 4.1892H22.4162L20.6499 3.17234L22.4076 1.09997ZM14.8982 12.9198L9.72994 9.93943L10.9329 8.67624L16.0968 11.6581L14.8982 12.9198ZM6.15703 10.5195L11.331 13.5013L8.56149 18.2805L3.38751 15.2972L6.15703 10.5195ZM11.9835 12.9685L7.52813 10.402L8.98547 10.4292L13.4408 12.9914L11.9835 12.9685ZM16.4719 10.9634L11.3138 7.99166L12.1761 4.36249L17.3357 7.32999L16.4719 10.9634ZM23.8319 7.31996L23.6149 7.34144L23.556 7.16099L23.8319 7.31996ZM16.4015 1.63274L21.4777 4.5544L17.7884 6.67834L12.7093 3.75668L16.4015 1.63274ZM3.97246 16.5461L8.43789 19.1241L9.18524 20.3629L4.72987 17.8007L3.97246 16.5461ZM0.790462 28.5894V24.3387L5.86671 27.2603V31.5082L0.790462 28.5894ZM6.20445 26.5528L1.05347 23.581L3.76406 21.0174L8.92223 23.9863L6.20445 26.5528ZM9.3419 23.3189L4.16792 20.3443L4.67526 18.6758L9.84923 21.6447L9.3419 23.3189ZM4.23834 31.4824L6.06073 32.5308C6.06073 32.5308 6.06792 32.5308 6.07079 32.5308C6.09386 32.5424 6.1179 32.552 6.14265 32.5594L6.16134 32.5666C6.1924 32.5741 6.22423 32.5779 6.25619 32.578H6.27344C6.2945 32.5794 6.31562 32.5794 6.33668 32.578L9.34765 31.9536L9.87942 33.1237L8.50256 37.0078L3.32859 34.036L4.23834 31.4824ZM14.7703 36.6383L15.1712 36.1714L16.4561 36.0439L17.1029 37.9688L14.7703 36.6383ZM30.2117 19.1856C30.1615 19.2339 30.1245 19.294 30.1039 19.3604L29.3781 21.8065C29.3625 21.8587 29.3579 21.9136 29.3649 21.9676C29.3718 22.0216 29.39 22.0736 29.4184 22.1202L30.8915 24.5664L30.847 24.6437C29.9041 26.2778 28.9297 27.9635 27.9625 29.6191L25.1038 29.5747C24.9956 29.5757 24.8922 29.6195 24.8164 29.6965L23.0587 31.544C23.0103 31.5942 22.9765 31.6566 22.961 31.7244L21.9391 35.9924L19.927 37.1524L18.0299 38.2438L17.1215 35.4911C17.0933 35.4063 17.0369 35.3336 16.9617 35.2849C16.8865 35.2362 16.7969 35.2145 16.7076 35.2233L14.9485 35.398C14.8458 35.4097 14.7519 35.4611 14.6869 35.5412L11.7924 38.9026C11.4091 38.6801 11.0258 38.4591 10.6426 38.2395C10.1635 37.9635 9.68443 37.6862 9.20536 37.4074L10.69 33.234C10.7245 33.1383 10.7204 33.0331 10.6785 32.9404L9.94984 31.3378C9.91286 31.2563 9.84918 31.1898 9.76925 31.1492C9.68933 31.1086 9.59792 31.0963 9.51005 31.1143L6.65718 31.7087V27.203L9.85498 24.1954C9.90571 24.1477 9.9429 24.0874 9.96277 24.0207L10.69 21.576C10.6893 21.5679 10.6893 21.5597 10.69 21.5516C10.69 21.5359 10.69 21.5187 10.6986 21.5029C10.6993 21.4924 10.6993 21.4819 10.6986 21.4714C10.6986 21.4557 10.6986 21.4399 10.6986 21.4242C10.6986 21.4084 10.6986 21.4027 10.6986 21.3912C10.6986 21.3798 10.6986 21.3626 10.6886 21.3482C10.6856 21.3374 10.6818 21.3269 10.6771 21.3167C10.6712 21.3025 10.6645 21.2886 10.6569 21.2752C10.6564 21.2704 10.6564 21.2656 10.6569 21.2609L9.17374 18.8104C10.2042 17.023 11.1499 15.3918 12.1042 13.7576L14.9327 13.8063H14.9643C15.0059 13.8057 15.0471 13.7985 15.0864 13.7849C15.1117 13.7777 15.1363 13.7681 15.1597 13.7562C15.198 13.7365 15.233 13.7109 15.2632 13.6803L17.0209 11.8328C17.0693 11.7831 17.1031 11.7212 17.1187 11.6538L18.1405 7.38584L18.5113 7.17388C19.6726 6.50791 20.8698 5.82189 22.0555 5.13587L22.4723 6.3962C22.4723 6.40479 22.4723 6.41195 22.4723 6.42055L22.9566 7.88567C22.9825 7.9645 23.0327 8.03315 23.1 8.08178C23.1674 8.13041 23.2486 8.15651 23.3318 8.15636H23.372L25.124 7.9802C25.1398 7.9802 25.1541 7.9802 25.17 7.97161C25.1762 7.97227 25.1824 7.97227 25.1886 7.97161C25.2183 7.9645 25.2468 7.95342 25.2734 7.93866L25.2907 7.92721C25.311 7.91451 25.3302 7.90013 25.3482 7.88424L25.3697 7.86419L25.3841 7.84844L28.2672 4.48136C29.0864 4.94921 29.9008 5.41897 30.7104 5.89064L30.8541 5.97513L29.3839 10.1428C29.3519 10.2365 29.3565 10.3388 29.3968 10.4292L30.124 12.0319C30.161 12.1133 30.2247 12.1798 30.3046 12.2204C30.3846 12.261 30.476 12.2733 30.5638 12.2553L33.4095 11.6652V16.168L30.2117 19.1856Z" fill="white"/>
<path d="M25.6802 15.1798C24.2013 13.0903 22.3056 13.4197 20.8181 13.9496L20.8008 13.9567C17.2552 15.419 14.6423 19.5666 13.9022 22.905C13.2152 25.8955 13.8634 28.3717 15.5923 29.3699C16.1293 29.6746 16.738 29.8313 17.3558 29.8239C18.2483 29.8239 19.2242 29.5375 20.2302 28.9517C21.8945 27.995 23.4568 26.3566 24.6296 24.3387V24.3243C25.4114 22.8449 25.8311 21.8796 26.2551 20.0521C26.4678 18.9536 26.6776 16.8641 25.6902 15.207C25.6874 15.1978 25.684 15.1887 25.6802 15.1798ZM25.489 19.8874C25.1225 21.4628 24.7891 22.3451 23.9411 23.9491C21.702 27.8003 18.1333 29.9256 15.9818 28.6868C14.5633 27.8676 14.0588 25.7193 14.6668 23.0783C15.3696 19.9376 17.8028 16.0492 21.094 14.6871C22.948 14.0298 24.0892 14.3005 25.0248 15.6209C25.8699 17.0517 25.6759 18.9164 25.489 19.8874Z" fill="white"/>
<path d="M22.228 17.8845C20.9187 17.1369 18.9224 18.2125 17.6878 20.3393C17.1201 21.3232 16.8082 22.383 16.8082 23.3211C16.8082 24.3351 17.1704 25.1013 17.8272 25.4808C18.1158 25.6483 18.4447 25.7344 18.7787 25.73C18.9731 25.7303 19.1666 25.7033 19.3535 25.6498C20.0916 25.4407 20.7579 25.0335 21.2794 24.4726C22.3085 23.4887 23.132 21.8159 23.2398 20.494C23.2905 20.0446 23.2584 19.5898 23.1449 19.152C23.0515 18.7195 22.6994 18.1366 22.228 17.8845ZM22.4536 20.4238C22.3602 21.5695 21.6157 23.0676 20.729 23.9169C20.7187 23.9262 20.7091 23.9363 20.7002 23.947C20.2836 24.3886 19.7569 24.7123 19.1739 24.885H19.1523C19.0034 24.9313 18.8467 24.9478 18.6913 24.9336C18.5359 24.9193 18.3849 24.8746 18.2469 24.802H18.2339C17.8287 24.5714 17.6059 24.0458 17.6059 23.3225C17.6059 22.5191 17.8818 21.6039 18.3791 20.7346C19.1868 19.3496 20.3912 18.4345 21.3024 18.4345C21.4931 18.4332 21.6806 18.4827 21.8457 18.5777L21.86 18.5863C22.1194 18.7649 22.3052 19.0309 22.3832 19.3353C22.3832 19.3453 22.3832 19.3554 22.3904 19.3654C22.4766 19.7113 22.498 20.0701 22.4536 20.4238Z" fill="white"/>
</g>
<defs>
<clipPath id="clip0_117_145">
<rect width="34.2" height="39.6" fill="white" transform="translate(0 0.200195)"/>
</clipPath>
</defs>
</svg>
