<svg width="40" height="40" viewBox="0 0 40 40" fill="none" xmlns="http://www.w3.org/2000/svg">
<g clip-path="url(#clip0_116_110)">
<path d="M24.8619 39.1998C24.7946 39.2 24.7285 39.182 24.6705 39.1477C24.6119 39.1141 24.5631 39.0654 24.5292 39.0066C24.4954 38.9477 24.4776 38.8809 24.4778 38.8129V23.1175C24.4775 23.0496 24.495 22.9829 24.5286 22.9241C24.5622 22.8652 24.6107 22.8165 24.6691 22.7826L38.6232 14.6606C38.6817 14.6269 38.7479 14.6093 38.8152 14.6094C38.8826 14.6095 38.9487 14.6274 39.0071 14.6612C39.0654 14.6951 39.1139 14.7438 39.1478 14.8024C39.1817 14.8611 39.1997 14.9276 39.2001 14.9954V30.6923C39.2001 30.7601 39.1824 30.8267 39.1489 30.8855C39.1153 30.9442 39.067 30.9931 39.0087 31.0271L25.0546 39.1477C24.996 39.1819 24.9295 39.1999 24.8619 39.1998ZM25.2418 23.3398V38.1418L38.4277 30.4686V15.6665L25.2418 23.3398Z" fill="white"/>
<path d="M21.074 21.2898C21.007 21.2896 20.9411 21.2722 20.8827 21.2391L19.9623 20.7059C19.9037 20.672 19.855 20.6231 19.8211 20.5642C19.7872 20.5053 19.7694 20.4384 19.7694 20.3704C19.7694 20.3023 19.7872 20.2354 19.8211 20.1765C19.855 20.1176 19.9037 20.0687 19.9623 20.0348L33.9499 11.9142C34.0089 11.8796 34.0758 11.8613 34.1441 11.8613C34.2123 11.8613 34.2793 11.8796 34.3382 11.9142L35.2251 12.4474C35.2827 12.4819 35.3304 12.5309 35.3634 12.5896C35.3965 12.6483 35.4138 12.7147 35.4136 12.7822C35.4133 12.8498 35.3953 12.916 35.3615 12.9743C35.3277 13.0326 35.2792 13.0809 35.2209 13.1143L21.2668 21.2349C21.2086 21.2702 21.142 21.2892 21.074 21.2898ZM20.9232 20.3697L21.074 20.4569L34.2698 12.778L34.1385 12.6978L20.9232 20.3697Z" fill="white"/>
<path d="M21.0406 36.9768C20.9713 36.9767 20.9032 36.9578 20.8437 36.9219L19.9568 36.3943C19.8997 36.3601 19.8524 36.3115 19.8196 36.2533C19.7867 36.195 19.7695 36.1292 19.7697 36.0623V20.3711C19.7695 20.3032 19.7871 20.2364 19.8207 20.1775C19.8543 20.1186 19.9027 20.0697 19.961 20.0356C20.0193 20.0016 20.0855 19.9835 20.1529 19.9834C20.2204 19.9833 20.2866 20.001 20.3451 20.0348L21.2655 20.568C21.3245 20.6017 21.3734 20.6506 21.4073 20.7097C21.4412 20.7688 21.4588 20.836 21.4582 20.9043L21.4247 36.5899C21.4247 36.6925 21.3842 36.7909 21.3122 36.8634C21.2402 36.936 21.1425 36.9768 21.0406 36.9768ZM20.5378 35.8372L20.6579 35.9089L20.6901 21.1266L20.5378 21.0394V35.8372Z" fill="white"/>
<path d="M17.2541 19.0769C17.1849 19.0775 17.1168 19.059 17.0572 19.0235L16.1634 18.4902C16.1061 18.4555 16.0588 18.4064 16.026 18.3477C15.9932 18.289 15.976 18.2227 15.9762 18.1554C15.9765 18.0879 15.9945 18.0216 16.0283 17.9633C16.0622 17.905 16.1107 17.8568 16.1689 17.8234L30.13 9.70836C30.1885 9.67454 30.2547 9.65674 30.3221 9.65674C30.3895 9.65674 30.4557 9.67454 30.5141 9.70836L31.4345 10.2416C31.4928 10.2756 31.5412 10.3244 31.5748 10.3832C31.6085 10.4419 31.6262 10.5086 31.6262 10.5764C31.6262 10.6443 31.6085 10.7109 31.5748 10.7697C31.5412 10.8284 31.4928 10.8773 31.4345 10.9113L17.4455 19.0263C17.3871 19.0593 17.3212 19.0768 17.2541 19.0769ZM17.1257 18.1638L17.2569 18.2426L30.4722 10.5764L30.3214 10.4892L17.1257 18.1638Z" fill="white"/>
<path d="M17.2542 34.7695C17.1842 34.7701 17.1154 34.7506 17.0559 34.7133L16.1634 34.1744C16.1069 34.14 16.0602 34.0914 16.0277 34.0336C15.9951 33.9757 15.9779 33.9103 15.9777 33.8438V18.1582C15.9777 18.0899 15.9957 18.0227 16.0299 17.9636C16.0641 17.9045 16.1132 17.8556 16.1722 17.8219C16.2313 17.7881 16.2981 17.7707 16.366 17.7715C16.4339 17.7723 16.5004 17.7911 16.5587 17.8262L17.4456 18.358C17.5029 18.3922 17.5504 18.4407 17.5834 18.4989C17.6165 18.5571 17.6339 18.623 17.6341 18.69V34.3826C17.6337 34.4851 17.5932 34.5833 17.5212 34.6558C17.4493 34.7283 17.3518 34.7692 17.25 34.7695H17.2542ZM16.75 33.6243L16.8701 33.6975V18.9109L16.75 18.8392V33.6243Z" fill="white"/>
<path d="M13.4664 16.8707C13.397 16.8707 13.329 16.8517 13.2695 16.8159L12.3826 16.2841C12.325 16.2497 12.2772 16.2008 12.2441 16.1422C12.2109 16.0837 12.1935 16.0174 12.1935 15.9499C12.1935 15.8825 12.2109 15.8162 12.2441 15.7576C12.2772 15.699 12.325 15.6501 12.3826 15.6158L26.3367 7.49515C26.3958 7.46028 26.463 7.44189 26.5315 7.44189C26.6 7.44189 26.6673 7.46028 26.7264 7.49515L27.616 8.03118C27.6737 8.06552 27.7213 8.11454 27.7542 8.17333C27.787 8.23211 27.8039 8.29857 27.8032 8.36602C27.8029 8.43289 27.7855 8.49855 27.7528 8.5567C27.72 8.61485 27.6729 8.66353 27.616 8.69805L13.6591 16.8187C13.6006 16.853 13.5341 16.871 13.4664 16.8707ZM13.3379 15.9563L13.4692 16.035L26.6621 8.35758L26.5308 8.27879L13.3379 15.9563Z" fill="white"/>
<path d="M13.433 32.5564C13.3638 32.5562 13.2959 32.5377 13.236 32.5029L12.3491 31.9725C12.2918 31.9382 12.2444 31.8894 12.2115 31.8309C12.1787 31.7724 12.1616 31.7063 12.162 31.6391L12.1955 15.9507C12.1955 15.8823 12.2136 15.8152 12.2477 15.7561C12.2819 15.697 12.331 15.6481 12.3901 15.6143C12.4491 15.5806 12.516 15.5632 12.5839 15.564C12.6518 15.5648 12.7182 15.5836 12.7765 15.6187L13.6634 16.1519C13.7205 16.1861 13.7678 16.2347 13.8007 16.2929C13.8335 16.3512 13.8507 16.417 13.8506 16.4839L13.817 32.1737C13.8167 32.2761 13.776 32.3741 13.7041 32.4464C13.6321 32.5186 13.5346 32.5592 13.433 32.5592V32.5564ZM12.9302 31.4196L13.0503 31.4914L13.0824 16.6978L12.9623 16.626L12.9302 31.4196Z" fill="white"/>
<path d="M9.67865 14.6576C9.61162 14.6575 9.54574 14.6401 9.4873 14.607L8.5669 14.0738C8.50828 14.0399 8.45959 13.991 8.42572 13.9321C8.39186 13.8732 8.37402 13.8063 8.37402 13.7382C8.37402 13.6702 8.39186 13.6033 8.42572 13.5444C8.45959 13.4855 8.50828 13.4366 8.5669 13.4027L22.5545 5.28767C22.6137 5.25308 22.6809 5.23486 22.7494 5.23486C22.8178 5.23486 22.885 5.25308 22.9442 5.28767L23.8311 5.82089C23.8884 5.85598 23.9357 5.90537 23.9685 5.96427C24.0012 6.02318 24.0184 6.08961 24.0182 6.15714C24.0175 6.22458 23.9993 6.29066 23.9655 6.34888C23.9317 6.4071 23.8835 6.45545 23.8255 6.48917L9.87837 14.6056C9.81784 14.6412 9.74871 14.6592 9.67865 14.6576ZM9.5292 13.7432L9.67865 13.8304L22.8744 6.14588L22.7431 6.06569L9.5292 13.7432Z" fill="white"/>
<path d="M9.64512 30.3447C9.5752 30.3441 9.50671 30.3247 9.44679 30.2884L8.5599 29.7495C8.50322 29.7149 8.45634 29.6662 8.4238 29.6081C8.39126 29.5499 8.37416 29.4843 8.37415 29.4175V13.7432C8.37425 13.6754 8.39204 13.6088 8.42573 13.5502C8.45942 13.4915 8.50783 13.4427 8.56611 13.4088C8.62438 13.3749 8.69048 13.357 8.75778 13.3569C8.82508 13.3569 8.89122 13.3746 8.94957 13.4084L9.86998 13.9416C9.92877 13.9754 9.97758 14.0244 10.0114 14.0835C10.0453 14.1425 10.063 14.2096 10.0627 14.2778L10.0292 29.969C10.0259 30.0695 9.98409 30.1649 9.91245 30.2349C9.8408 30.305 9.74497 30.3443 9.64512 30.3447ZM9.14231 29.1994L9.26243 29.2726L9.29455 14.4889L9.14231 14.4002V29.1994Z" fill="white"/>
<path d="M5.85873 12.4403C5.7895 12.4408 5.72144 12.4223 5.6618 12.3869L4.77492 11.8579C4.71731 11.8235 4.66957 11.7746 4.63641 11.716C4.60325 11.6575 4.58582 11.5912 4.58582 11.5237C4.58582 11.4563 4.60325 11.39 4.63641 11.3314C4.66957 11.2728 4.71731 11.224 4.77492 11.1896L18.7332 3.06895C18.7922 3.03435 18.8591 3.01611 18.9274 3.01611C18.9956 3.01611 19.0626 3.03435 19.1215 3.06895L20.0084 3.59795C20.0663 3.63203 20.1144 3.68081 20.1478 3.73944C20.1813 3.79806 20.1988 3.86448 20.1988 3.93209C20.1988 3.99969 20.1813 4.06611 20.1478 4.12474C20.1144 4.18336 20.0663 4.23215 20.0084 4.26623L6.05008 12.3897C5.99171 12.4229 5.92579 12.4404 5.85873 12.4403ZM5.73164 11.5287L5.86013 11.606L19.0517 3.92857L18.9232 3.85119L5.73164 11.5287Z" fill="white"/>
<path d="M5.85874 28.1288C5.78948 28.1294 5.72139 28.1109 5.66181 28.0753L4.77492 27.5421C4.71779 27.5079 4.67049 27.4593 4.63767 27.4011C4.60485 27.3429 4.58766 27.277 4.58777 27.2101V11.5245C4.58769 11.4562 4.60557 11.3891 4.63957 11.3301C4.67358 11.271 4.7225 11.222 4.78138 11.1881C4.84026 11.1543 4.90698 11.1367 4.97478 11.1372C5.04258 11.1377 5.10903 11.1563 5.16739 11.1911L6.05427 11.7215C6.11255 11.7552 6.16103 11.8038 6.19485 11.8623C6.22867 11.9208 6.24666 11.9872 6.24701 12.0549V27.7419C6.24738 27.7928 6.2377 27.8433 6.21853 27.8904C6.19936 27.9375 6.17108 27.9803 6.13534 28.0163C6.0996 28.0523 6.05712 28.0808 6.01035 28.1001C5.96358 28.1194 5.91347 28.1292 5.86293 28.1288H5.85874ZM5.35594 26.9906L5.47465 27.061V12.2744L5.35594 12.2041V26.9906Z" fill="white"/>
<path d="M24.8619 23.5042C24.792 23.5037 24.7235 23.4842 24.6636 23.448L23.7767 22.9091C23.7194 22.8747 23.6719 22.8258 23.639 22.7674C23.6061 22.7089 23.5887 22.6429 23.5887 22.5757C23.5887 22.5085 23.6061 22.4424 23.639 22.384C23.6719 22.3255 23.7194 22.2767 23.7767 22.2422L37.7308 14.1315C37.7897 14.0968 37.8567 14.0786 37.9249 14.0786C37.9931 14.0786 38.0601 14.0968 38.1191 14.1315L39.0059 14.6604C39.0639 14.6945 39.112 14.7433 39.1454 14.8019C39.1788 14.8606 39.1964 14.927 39.1964 14.9946C39.1964 15.0622 39.1788 15.1286 39.1454 15.1872C39.112 15.2459 39.0639 15.2946 39.0059 15.3287L25.0546 23.4508C24.9959 23.4848 24.9296 23.5032 24.8619 23.5042ZM24.7306 22.5855L24.8703 22.6671L38.059 14.9911L37.9305 14.9151L24.7306 22.5855Z" fill="white"/>
<path d="M24.8619 39.1898C24.793 39.1897 24.7254 39.1708 24.6664 39.1349L23.7795 38.6059C23.722 38.572 23.6743 38.5235 23.6413 38.4653C23.6082 38.407 23.5908 38.341 23.5909 38.2739V22.5771C23.5911 22.5086 23.6092 22.4414 23.6436 22.3823C23.6779 22.3232 23.7272 22.2744 23.7865 22.2408C23.8457 22.2071 23.9127 22.19 23.9807 22.191C24.0486 22.192 24.1151 22.2111 24.1734 22.2465L25.0602 22.7853C25.1171 22.8197 25.1641 22.8684 25.1967 22.9266C25.2293 22.9848 25.2462 23.0505 25.246 23.1174V38.8029C25.246 38.8711 25.2281 38.938 25.194 38.9968C25.1598 39.0557 25.1108 39.1043 25.0519 39.1378C24.9944 39.1721 24.9287 39.1901 24.8619 39.1898ZM24.3591 38.053L24.4778 38.1234V23.3354L24.3591 23.2623V38.053Z" fill="white"/>
<path d="M2.07103 10.2263C2.00167 10.2262 1.93362 10.2073 1.8741 10.1714L0.987214 9.63396C0.929255 9.59988 0.881172 9.5511 0.847754 9.49248C0.814337 9.43385 0.796753 9.36743 0.796753 9.29982C0.796753 9.23222 0.814337 9.1658 0.847754 9.10717C0.881172 9.04855 0.929255 8.99976 0.987214 8.96568L14.9455 0.852078C15.0046 0.817209 15.0719 0.798828 15.1404 0.798828C15.2088 0.798828 15.2761 0.817209 15.3352 0.852078L16.2221 1.38529C16.2797 1.41946 16.3275 1.4682 16.3607 1.52668C16.3939 1.58516 16.4113 1.65136 16.4113 1.71873C16.4113 1.7861 16.3939 1.8523 16.3607 1.91078C16.3275 1.96926 16.2797 2.018 16.2221 2.05217L2.26237 10.1686C2.20493 10.2049 2.13881 10.2248 2.07103 10.2263ZM1.94254 9.31178L2.07382 9.39057L15.2668 1.71451L15.1355 1.63572L1.94254 9.31178Z" fill="white"/>
<path d="M2.07102 25.906C2.00187 25.9058 1.93398 25.8873 1.87409 25.8525L0.987202 25.3193C0.930164 25.285 0.882936 25.2364 0.850133 25.1782C0.81733 25.12 0.800073 25.0542 0.800049 24.9873V9.30033C0.800074 9.23194 0.818093 9.16478 0.852271 9.1057C0.886448 9.04661 0.935563 8.9977 0.994612 8.96395C1.05366 8.93021 1.12053 8.91283 1.18842 8.9136C1.2563 8.91436 1.32278 8.93324 1.38106 8.9683L2.26795 9.50152C2.32499 9.53583 2.37221 9.58446 2.40502 9.64265C2.43782 9.70085 2.45508 9.76662 2.4551 9.83354V25.5191C2.4551 25.6217 2.41463 25.7201 2.34261 25.7927C2.27058 25.8652 2.17288 25.906 2.07102 25.906ZM1.56822 24.7678L1.68693 24.8382V10.053L1.56822 9.98268V24.7678Z" fill="white"/>
<path d="M25.9191 37.3612C25.8173 37.3612 25.7196 37.3204 25.6475 37.2478C25.5755 37.1753 25.535 37.0769 25.535 36.9743L25.57 23.6973C25.5702 23.6296 25.588 23.563 25.6215 23.5043C25.6551 23.4456 25.7033 23.3967 25.7613 23.3625L37.5659 16.4897C37.6244 16.4556 37.6908 16.4375 37.7585 16.4375C37.8261 16.4375 37.8925 16.4554 37.951 16.4895C38.0096 16.5236 38.0581 16.5727 38.0918 16.6318C38.1255 16.6909 38.143 16.7579 38.1428 16.826L38.1078 30.1128C38.1079 30.1804 38.0903 30.2469 38.0567 30.3054C38.0231 30.364 37.9747 30.4125 37.9165 30.4462L26.1119 37.3091C26.0534 37.3434 25.9868 37.3614 25.9191 37.3612ZM26.3381 23.921L26.306 36.3018L37.3397 29.8863L37.3704 17.4943L26.3381 23.921Z" fill="white"/>
<path d="M32.9821 22.1974C32.8988 22.1967 32.818 22.1687 32.7519 22.1176C32.6858 22.0666 32.6379 21.9953 32.6156 21.9145C32.5932 21.8337 32.5975 21.7477 32.6278 21.6696C32.6582 21.5915 32.7129 21.5254 32.7838 21.4813L36.2755 19.4483C36.3634 19.4008 36.4662 19.3896 36.5622 19.4171C36.6581 19.4446 36.7397 19.5087 36.7896 19.5957C36.8395 19.6827 36.8539 19.7859 36.8296 19.8834C36.8053 19.9809 36.7443 20.065 36.6595 20.118L33.179 22.1454C33.1194 22.1805 33.0512 22.1985 32.9821 22.1974Z" fill="white"/>
<path d="M32.9821 31.4773C32.8975 31.4774 32.8153 31.4493 32.7482 31.3975C32.6811 31.3458 32.6328 31.2731 32.6108 31.1909C32.5889 31.1087 32.5945 31.0214 32.6267 30.9427C32.659 30.864 32.7162 30.7982 32.7893 30.7555L36.2754 28.7212C36.3191 28.6957 36.3673 28.6791 36.4173 28.6724C36.4673 28.6656 36.5181 28.6689 36.5669 28.6819C36.6157 28.695 36.6614 28.7176 36.7015 28.7485C36.7416 28.7794 36.7752 28.8179 36.8006 28.8619C36.8259 28.9058 36.8423 28.9544 36.849 29.0048C36.8557 29.0552 36.8524 29.1064 36.8395 29.1555C36.8265 29.2046 36.8041 29.2507 36.7734 29.2911C36.7428 29.3314 36.7045 29.3654 36.6609 29.3908L33.1748 31.4252C33.1162 31.4592 33.0497 31.4771 32.9821 31.4773Z" fill="white"/>
<path d="M32.982 29.1571C32.8973 29.1578 32.8148 29.1302 32.7474 29.0786C32.68 29.027 32.6314 28.9544 32.6094 28.872C32.5873 28.7896 32.593 28.7022 32.6256 28.6235C32.6582 28.5447 32.7157 28.4791 32.7893 28.4368L36.2754 26.4052C36.3635 26.3538 36.4684 26.3396 36.5669 26.366C36.6654 26.3924 36.7494 26.4571 36.8005 26.5459C36.8516 26.6347 36.8656 26.7404 36.8394 26.8396C36.8133 26.9388 36.749 27.0234 36.6609 27.0749L33.1748 29.1051C33.1161 29.1391 33.0497 29.157 32.982 29.1571Z" fill="white"/>
<path d="M32.9821 26.8371C32.8975 26.8372 32.8153 26.8092 32.7482 26.7574C32.6811 26.7056 32.6328 26.633 32.6108 26.5508C32.5889 26.4685 32.5945 26.3813 32.6267 26.3026C32.659 26.2239 32.7162 26.1581 32.7893 26.1154L36.2754 24.081C36.3191 24.0555 36.3673 24.0389 36.4173 24.0322C36.4673 24.0255 36.5181 24.0287 36.5669 24.0418C36.6157 24.0549 36.6614 24.0775 36.7015 24.1084C36.7416 24.1392 36.7752 24.1777 36.8006 24.2217C36.8259 24.2657 36.8423 24.3143 36.849 24.3646C36.8557 24.415 36.8524 24.4662 36.8395 24.5154C36.8265 24.5645 36.8041 24.6105 36.7734 24.6509C36.7428 24.6913 36.7045 24.7252 36.6609 24.7507L33.1748 26.7851C33.1162 26.8191 33.0497 26.837 32.9821 26.8371Z" fill="white"/>
<path d="M32.9821 24.5175C32.8975 24.5176 32.8153 24.4895 32.7482 24.4377C32.6811 24.386 32.6328 24.3133 32.6108 24.2311C32.5889 24.1489 32.5945 24.0616 32.6267 23.9829C32.659 23.9042 32.7162 23.8384 32.7893 23.7957L36.2754 21.7628C36.3633 21.7153 36.4661 21.7041 36.5621 21.7316C36.6581 21.7591 36.7397 21.8231 36.7896 21.9102C36.8395 21.9972 36.8538 22.1004 36.8295 22.1978C36.8053 22.2953 36.7443 22.3795 36.6595 22.4325L33.179 24.4598C33.1199 24.4969 33.0517 24.5169 32.9821 24.5175Z" fill="white"/>
<path d="M27.1817 25.5695C27.0973 25.5693 27.0153 25.5411 26.9484 25.4892C26.8815 25.4373 26.8335 25.3646 26.8117 25.2825C26.7899 25.2003 26.7956 25.1132 26.8279 25.0346C26.8602 24.9561 26.9173 24.8904 26.9904 24.8478L30.7083 22.6826C30.752 22.6571 30.8002 22.6405 30.8502 22.6338C30.9002 22.627 30.951 22.6303 30.9998 22.6434C31.0486 22.6564 31.0943 22.679 31.1344 22.7099C31.1745 22.7408 31.2081 22.7793 31.2335 22.8233C31.2588 22.8672 31.2752 22.9158 31.2819 22.9662C31.2886 23.0166 31.2853 23.0678 31.2724 23.1169C31.2594 23.166 31.237 23.2121 31.2063 23.2525C31.1757 23.2929 31.1374 23.3268 31.0938 23.3523L27.3745 25.5175C27.3158 25.5515 27.2494 25.5694 27.1817 25.5695Z" fill="white"/>
<path d="M27.1817 34.8469C27.0968 34.8472 27.0143 34.8192 26.9469 34.7672C26.8795 34.7152 26.8311 34.6422 26.8092 34.5596C26.7874 34.477 26.7933 34.3895 26.8261 34.3106C26.8588 34.2317 26.9166 34.166 26.9904 34.1237L30.7097 31.9627C30.7974 31.9179 30.8988 31.9087 30.9931 31.937C31.0873 31.9653 31.1672 32.0289 31.2163 32.1148C31.2654 32.2006 31.2799 32.3022 31.2568 32.3985C31.2337 32.4948 31.1749 32.5785 31.0924 32.6324L27.3744 34.7906C27.3162 34.8261 27.2497 34.8455 27.1817 34.8469Z" fill="white"/>
<path d="M27.1818 27.8925C27.0972 27.8926 27.015 27.8645 26.9479 27.8128C26.8808 27.761 26.8325 27.6883 26.8105 27.6061C26.7886 27.5239 26.7942 27.4366 26.8264 27.3579C26.8587 27.2792 26.9159 27.2134 26.989 27.1708L30.7084 24.9985C30.7965 24.947 30.9014 24.9329 30.9999 24.9593C31.0983 24.9857 31.1824 25.0504 31.2335 25.1392C31.2846 25.228 31.2986 25.3336 31.2724 25.4328C31.2462 25.532 31.182 25.6167 31.0938 25.6682L27.3745 27.8404C27.3159 27.8746 27.2494 27.8926 27.1818 27.8925Z" fill="white"/>
<path d="M27.1817 32.521C27.0973 32.5208 27.0153 32.4925 26.9484 32.4406C26.8815 32.3887 26.8335 32.3161 26.8117 32.2339C26.7899 32.1518 26.7956 32.0647 26.8279 31.9861C26.8602 31.9075 26.9173 31.8419 26.9904 31.7993L30.7083 29.6411C30.752 29.6156 30.8002 29.599 30.8502 29.5923C30.9002 29.5855 30.951 29.5888 30.9998 29.6019C31.0486 29.6149 31.0943 29.6375 31.1344 29.6684C31.1745 29.6993 31.2081 29.7378 31.2335 29.7818C31.2588 29.8257 31.2752 29.8743 31.2819 29.9247C31.2886 29.9751 31.2853 30.0263 31.2724 30.0754C31.2594 30.1245 31.237 30.1706 31.2063 30.211C31.1757 30.2514 31.1374 30.2853 31.0938 30.3108L27.3745 32.476C27.3152 32.5076 27.2488 32.5232 27.1817 32.521Z" fill="white"/>
<path d="M27.1818 30.2123C27.0972 30.2124 27.015 30.1844 26.9479 30.1326C26.8808 30.0808 26.8325 30.0082 26.8105 29.9259C26.7886 29.8437 26.7942 29.7565 26.8264 29.6778C26.8587 29.599 26.9159 29.5333 26.989 29.4906L30.7084 27.3155C30.752 27.2871 30.8009 27.2678 30.8522 27.259C30.9034 27.2501 30.9559 27.2519 31.0065 27.2641C31.057 27.2762 31.1046 27.2987 31.1463 27.3299C31.1881 27.3612 31.223 27.4007 31.2491 27.4459C31.2753 27.4912 31.292 27.5414 31.2983 27.5934C31.3046 27.6454 31.3004 27.6981 31.2859 27.7484C31.2713 27.7987 31.2468 27.8455 31.2138 27.8859C31.1808 27.9264 31.14 27.9597 31.0938 27.9838L27.3745 30.1603C27.3159 30.1944 27.2494 30.2124 27.1818 30.2123Z" fill="white"/>
<path d="M31.8564 33.9213C31.7545 33.9213 31.6568 33.8805 31.5848 33.8079C31.5128 33.7354 31.4723 33.637 31.4723 33.5344V20.2673C31.4723 20.1647 31.5128 20.0662 31.5848 19.9937C31.6568 19.9211 31.7545 19.8804 31.8564 19.8804C31.9582 19.8804 32.0559 19.9211 32.128 19.9937C32.2 20.0662 32.2405 20.1647 32.2405 20.2673V33.5344C32.2405 33.637 32.2 33.7354 32.128 33.8079C32.0559 33.8805 31.9582 33.9213 31.8564 33.9213Z" fill="white"/>
<path d="M24.8619 39.2C24.7946 39.2002 24.7286 39.1823 24.6706 39.148C24.6453 39.1335 24.6218 39.116 24.6007 39.0959L23.7795 38.6063C23.7256 38.5742 23.6802 38.5294 23.6474 38.4757C23.6145 38.4221 23.5952 38.3611 23.5909 38.2982L23.57 37.9577L21.5183 36.7576L21.2389 36.9251C21.1799 36.9599 21.1126 36.9783 21.0441 36.9783C20.9756 36.9783 20.9084 36.9599 20.8493 36.9251L19.9568 36.3947C19.8997 36.3605 19.8524 36.3118 19.8196 36.2536C19.7867 36.1954 19.7695 36.1296 19.7697 36.0626V35.739L17.7333 34.5516L17.454 34.7219C17.3945 34.7578 17.3264 34.7768 17.257 34.7768C17.1877 34.7768 17.1196 34.7578 17.0601 34.7219L16.1635 34.1746C16.107 34.1401 16.0602 34.0916 16.0277 34.0337C15.9952 33.9758 15.978 33.9105 15.9777 33.8439V33.5274L13.933 32.3343L13.6103 32.5102C13.5526 32.543 13.4874 32.5602 13.4211 32.5602C13.3548 32.5602 13.2896 32.543 13.2318 32.5102L12.345 31.9798C12.2878 31.9456 12.2405 31.897 12.2077 31.8388C12.1749 31.7805 12.1577 31.7147 12.1578 31.6478V31.3214L10.1215 30.1325L9.84214 30.3028C9.78265 30.3387 9.71458 30.3577 9.64521 30.3577C9.57583 30.3577 9.50776 30.3387 9.44827 30.3028L8.56139 29.7639C8.5047 29.7293 8.45783 29.6806 8.42529 29.6224C8.39275 29.5643 8.37565 29.4987 8.37563 29.4319V29.1083L6.33929 27.9124L6.05996 28.0827C6.00047 28.1186 5.9324 28.1376 5.86303 28.1376C5.79365 28.1376 5.72558 28.1186 5.6661 28.0827L4.77921 27.5495C4.72208 27.5153 4.67478 27.4666 4.64196 27.4084C4.60914 27.3502 4.59195 27.2844 4.59206 27.2174V26.8868L2.55292 25.6952L2.27359 25.8612C2.2144 25.8958 2.14718 25.914 2.07875 25.914C2.01032 25.914 1.94311 25.8958 1.88392 25.8612L0.997035 25.328C0.936942 25.2942 0.886961 25.2448 0.852317 25.1849C0.817674 25.125 0.799642 25.0568 0.800105 24.9875V9.30053C0.798928 9.23157 0.816204 9.16357 0.850118 9.10367C0.884032 9.04376 0.933334 8.99415 0.992845 8.96006L14.9456 0.852078C15.0047 0.817209 15.0719 0.798828 15.1404 0.798828C15.2089 0.798828 15.2761 0.817209 15.3352 0.852078L16.2221 1.38529C16.2792 1.4195 16.3266 1.46811 16.3594 1.52633C16.3922 1.58455 16.4094 1.65037 16.4093 1.71732V2.05357L18.4456 3.241L18.7249 3.07076C18.7844 3.03551 18.8522 3.01691 18.9212 3.01691C18.9902 3.01691 19.0579 3.03551 19.1174 3.07076L20.0043 3.59976C20.0615 3.63433 20.1089 3.68318 20.142 3.74158C20.175 3.79999 20.1925 3.86598 20.1928 3.9332V4.26663L22.2348 5.46672L22.5546 5.28664C22.6133 5.25269 22.6797 5.23483 22.7473 5.23483C22.815 5.23483 22.8814 5.25269 22.9401 5.28664L23.827 5.81985C23.884 5.8545 23.9312 5.90339 23.964 5.96181C23.9968 6.02023 24.0141 6.08618 24.0141 6.15329V6.48532L26.0197 7.67415L26.3382 7.49125C26.397 7.45636 26.464 7.43797 26.5323 7.43797C26.6006 7.43797 26.6676 7.45636 26.7265 7.49125L27.6161 8.0315C27.6733 8.06571 27.7206 8.11432 27.7534 8.17254C27.7862 8.23076 27.8034 8.29658 27.8033 8.36353V8.69415L29.8382 9.88299L30.1176 9.71134C30.1767 9.67647 30.2439 9.65809 30.3124 9.65809C30.3809 9.65809 30.4481 9.67647 30.5072 9.71134L31.4276 10.2446C31.4863 10.2782 31.5351 10.3269 31.5689 10.3857C31.6028 10.4446 31.6206 10.5114 31.6204 10.5794V10.9142L33.6274 12.1017L33.95 11.9146C34.009 11.8799 34.076 11.8617 34.1442 11.8617C34.2124 11.8617 34.2794 11.8799 34.3383 11.9146L35.2252 12.4478C35.2826 12.4818 35.3302 12.5303 35.3632 12.5886C35.3963 12.6468 35.4137 12.7127 35.4137 12.7798V13.1146L37.4473 14.3063L37.7266 14.1332C37.7864 14.0973 37.8547 14.0783 37.9242 14.0783C37.9938 14.0783 38.0621 14.0973 38.1219 14.1332L39.0088 14.6622C39.0662 14.6966 39.1137 14.7454 39.1468 14.8039C39.1798 14.8623 39.1972 14.9284 39.1973 14.9957V30.6925C39.1973 30.7603 39.1797 30.8269 39.1461 30.8857C39.1125 30.9445 39.0642 30.9933 39.006 31.0273L25.0519 39.148C24.9941 39.1816 24.9286 39.1996 24.8619 39.2ZM24.3451 38.045L24.8731 38.3601L38.4319 30.4688V15.2166L37.9319 14.9183L37.6526 15.0899C37.5932 15.1255 37.5254 15.1442 37.4564 15.1442C37.3873 15.1442 37.3195 15.1255 37.2601 15.0899L34.8355 13.6746C34.7776 13.6403 34.7297 13.5913 34.6964 13.5326C34.663 13.4739 34.6455 13.4074 34.6456 13.3397V13.0021L34.1386 12.6982L33.8215 12.8811C33.763 12.9153 33.6965 12.9333 33.6288 12.9333C33.5611 12.9333 33.4946 12.9153 33.4361 12.8811L31.0478 11.4742C30.99 11.4398 30.9421 11.3908 30.9088 11.3321C30.8755 11.2734 30.8579 11.207 30.8578 11.1393V10.8003L30.3257 10.4922L30.0463 10.6638C29.9871 10.6991 29.9196 10.7177 29.8508 10.7177C29.782 10.7177 29.7145 10.6991 29.6553 10.6638L27.2279 9.25129C27.1696 9.21726 27.1213 9.16841 27.0877 9.10965C27.0541 9.05088 27.0365 8.98425 27.0365 8.91644V8.58301L26.5295 8.27912L26.2195 8.46201C26.1609 8.49623 26.0944 8.51426 26.0267 8.51426C25.959 8.51426 25.8925 8.49623 25.834 8.46201L23.4457 7.04667C23.3862 7.01306 23.3367 6.96403 23.3023 6.90466C23.2679 6.84529 23.2499 6.77774 23.2502 6.70901V6.37699L22.7404 6.07028L22.4219 6.25036C22.364 6.28354 22.2986 6.30099 22.232 6.30099C22.1654 6.30099 22.0999 6.28354 22.042 6.25036L19.6188 4.82376C19.5609 4.78945 19.513 4.74051 19.4797 4.68178C19.4463 4.62304 19.4288 4.55657 19.4289 4.48892V4.15408L18.9261 3.853L18.6467 4.02183C18.5879 4.05672 18.5209 4.07512 18.4526 4.07512C18.3843 4.07512 18.3173 4.05672 18.2585 4.02183L15.8324 2.61071C15.774 2.5769 15.7255 2.5281 15.6919 2.46929C15.6583 2.41047 15.6408 2.34373 15.6411 2.27586V1.93961L15.1355 1.63572L1.56827 9.52282V24.768L2.07387 25.0705L2.3532 24.9059C2.41185 24.872 2.4783 24.8541 2.54594 24.8541C2.61358 24.8541 2.68003 24.872 2.73868 24.9059L5.1619 26.3226C5.21994 26.3569 5.26811 26.4058 5.30166 26.4645C5.33522 26.5232 5.353 26.5897 5.35324 26.6575V26.9909L5.85465 27.292L6.13398 27.1232C6.19319 27.0879 6.26072 27.0693 6.32951 27.0693C6.39831 27.0693 6.46584 27.0879 6.52505 27.1232L8.94827 28.5456C9.00614 28.5799 9.05411 28.6288 9.08743 28.6875C9.12074 28.7463 9.13825 28.8127 9.13822 28.8804V29.2082L9.64241 29.5149L9.92175 29.3475C9.98068 29.3129 10.0477 29.2946 10.1159 29.2946C10.1841 29.2946 10.2511 29.3129 10.31 29.3475L12.7318 30.7544C12.7902 30.7883 12.8388 30.8371 12.8726 30.8959C12.9064 30.9547 12.9243 31.0213 12.9246 31.0892V31.4184L13.4358 31.7237L13.7556 31.5493C13.8131 31.5171 13.8777 31.5003 13.9435 31.5003C14.0092 31.5003 14.0738 31.5171 14.1313 31.5493L16.5531 32.9562C16.6136 32.9902 16.6639 33.0401 16.6986 33.1005C16.7332 33.1609 16.751 33.2297 16.7501 33.2995V33.6203L17.2557 33.9284L17.535 33.7609C17.5938 33.7261 17.6608 33.7077 17.7291 33.7077C17.7974 33.7077 17.8644 33.7261 17.9233 33.7609L20.3465 35.1678C20.4047 35.2019 20.453 35.2507 20.4866 35.3095C20.5202 35.3683 20.5379 35.4349 20.5378 35.5027V35.8319L21.0434 36.1358L21.3227 35.9712C21.3812 35.9367 21.4477 35.9185 21.5155 35.9185C21.5832 35.9185 21.6498 35.9367 21.7082 35.9712L24.1301 37.3865C24.1849 37.4184 24.2311 37.4635 24.2645 37.5178C24.2979 37.572 24.3174 37.6337 24.3214 37.6975L24.3451 38.045Z" fill="white"/>
<path d="M24.8954 23.4862C24.8271 23.4865 24.76 23.468 24.7013 23.4328L23.813 22.9038L20.9177 21.2155L19.9987 20.6963L17.0964 19.0081L16.2053 18.4762L13.3086 16.788L12.3924 16.2758L9.52088 14.5876L8.60467 14.0684L5.70099 12.3801L4.78478 11.861L1.91742 10.1755C1.87268 10.1505 1.83334 10.1168 1.80171 10.0763C1.77008 10.0358 1.7468 9.98939 1.73324 9.93971C1.71967 9.89003 1.71609 9.83812 1.72271 9.78703C1.72933 9.73594 1.74601 9.6867 1.77178 9.64219C1.79754 9.59768 1.83188 9.55881 1.87276 9.52784C1.91364 9.49688 1.96025 9.47446 2.00986 9.46189C2.05946 9.44932 2.11106 9.44685 2.16162 9.45464C2.21218 9.46243 2.26069 9.48031 2.30429 9.50724L5.17026 11.1955L6.08647 11.7147L8.99015 13.403L9.90776 13.9235L12.7779 15.6118L13.6885 16.1352L16.5922 17.8234L17.4833 18.3567L20.38 20.0449L21.2976 20.5641L24.2013 22.2524L25.0923 22.7842C25.1644 22.8276 25.2204 22.8937 25.2517 22.9723C25.2829 23.0508 25.2878 23.1375 25.2654 23.2191C25.2431 23.3007 25.1948 23.3727 25.1279 23.424C25.0611 23.4753 24.9794 23.5031 24.8954 23.5031V23.4862Z" fill="white"/>
</g>
<defs>
<clipPath id="clip0_116_110">
<rect width="38.4" height="38.4" fill="white" transform="translate(0.800049 0.799805)"/>
</clipPath>
</defs>
</svg>
