<svg width="33" height="40" viewBox="0 0 33 40" fill="none" xmlns="http://www.w3.org/2000/svg">
<g clip-path="url(#clip0_116_102)">
<path d="M28.5136 1.99354L28.3203 1.87452L25.5972 0.305646C25.5511 0.278987 25.4998 0.26242 25.4467 0.257056C25.3937 0.251691 25.3401 0.257652 25.2895 0.274539C25.2374 0.290158 25.1893 0.316717 25.1484 0.352419C25.1075 0.38812 25.0748 0.43213 25.0526 0.481468L24.9927 0.62483C24.2832 0.371956 23.5377 0.232717 22.7842 0.212325C15.9683 -0.128499 9.36475 6.49864 5.67902 12.413L5.09355 12.0749C5.08392 12.07 5.0739 12.066 5.0636 12.0627C5.05144 12.0558 5.03868 12.0499 5.02548 12.0451C5.01307 12.0409 5.00031 12.0377 4.98735 12.0357L4.95331 12.0276H4.90974C4.90022 12.0269 4.89067 12.0269 4.88115 12.0276C4.86507 12.0289 4.84913 12.0317 4.8335 12.0357H4.81035C4.79401 12.0357 4.77903 12.0465 4.76269 12.0519L4.74227 12.06C4.72866 12.06 4.71504 12.0763 4.70143 12.0844C4.69493 12.0889 4.6881 12.093 4.681 12.0965C4.66946 12.1062 4.65854 12.1166 4.64832 12.1276L4.62654 12.1466L4.60203 12.1804C4.59504 12.189 4.58867 12.198 4.58297 12.2074C2.51477 15.7536 -0.80334 22.7459 0.176979 29.672C0.906773 34.9656 3.26771 36.3113 6.82273 38.34L7.23119 38.574L7.38641 38.6781C7.44827 38.7199 7.52126 38.7425 7.59609 38.743C7.62312 38.7426 7.65004 38.7395 7.67642 38.7336C7.75395 38.7163 7.824 38.6751 7.87657 38.6159C8.86428 39.0091 9.91959 39.2075 10.9836 39.2002C13.0573 39.2002 15.3406 38.5239 17.6621 37.1715C21.4254 35.0197 24.9981 31.3558 27.7512 26.8142L27.935 26.9143C27.9906 26.9457 28.0535 26.962 28.1174 26.9616C28.1834 26.9617 28.2483 26.9445 28.3054 26.9118C28.3626 26.879 28.41 26.8318 28.4428 26.775C31.313 21.8181 32.936 16.5638 32.9945 11.9816C33.0653 7.27496 31.4723 3.72606 28.5136 1.99354ZM26.5625 8.54899C26.5771 8.56772 26.5935 8.58494 26.6116 8.60038C26.6679 8.65243 26.7177 8.71101 26.76 8.77485C26.7726 8.7977 26.7872 8.81942 26.8035 8.83977L26.8226 8.856C26.8359 8.87162 26.851 8.88569 26.8675 8.89793L26.937 9.00613L26.9805 9.07375L27.005 9.11297C27.0908 9.24822 27.1644 9.38347 27.2297 9.50113C27.2264 9.49719 27.2228 9.49357 27.2188 9.49032L27.1984 9.47273L27.1684 9.44974L27.148 9.43622L25.7034 8.62473C25.5322 8.17465 25.314 7.74357 25.0526 7.33852L25.1234 7.37234C25.1383 7.37937 25.1538 7.38524 25.1697 7.38992C25.3726 7.51113 25.5664 7.64673 25.7497 7.79566C25.7642 7.80768 25.7797 7.81854 25.796 7.82812C25.8075 7.83688 25.8184 7.84636 25.8287 7.85652C25.86 7.88492 25.8913 7.91333 25.9308 7.94308C26.0421 8.02234 26.1448 8.11301 26.2371 8.21358C26.2498 8.22887 26.2639 8.24291 26.2793 8.2555C26.383 8.3441 26.4778 8.44238 26.5625 8.54899ZM22.2056 23.222C22.1978 23.2358 22.1915 23.2503 22.1865 23.2653C22.1823 23.2731 22.1787 23.2813 22.1756 23.2896C22.1711 23.3042 22.1679 23.3191 22.1661 23.3343C22.163 23.3431 22.1607 23.3521 22.1593 23.3613C22.1593 23.3748 22.1593 23.3897 22.1593 23.4046V23.433C22.1608 23.4462 22.163 23.4593 22.1661 23.4722C22.1661 23.483 22.1661 23.4939 22.1661 23.5033C22.1661 23.5128 22.1756 23.5263 22.1797 23.5385C22.183 23.5492 22.1871 23.5596 22.192 23.5696C22.192 23.5804 22.2042 23.5899 22.211 23.6007L22.2301 23.6305C22.2375 23.6397 22.2457 23.6483 22.2546 23.6562C22.2625 23.6662 22.2711 23.6757 22.2805 23.6846L22.309 23.7035C22.3189 23.7124 22.3293 23.7205 22.3404 23.7278L22.9994 24.0957C22.1515 25.461 21.1755 26.7434 20.0843 27.9259C20.539 24.1944 22.1143 20.6401 24.6237 17.6201C24.0287 19.57 23.2187 21.4488 22.2083 23.222H22.2056ZM19.9467 30.1764C19.9467 29.8221 19.9572 29.4682 19.9781 29.1147C21.375 27.7085 22.6081 26.1505 23.6543 24.4703L24.655 25.0546C24.3677 25.5226 24.0682 25.9702 23.7591 26.3841L23.7509 26.3949C23.657 26.5302 23.563 26.6654 23.4677 26.8007L23.2594 27.0955C22.267 28.3726 21.158 29.5561 19.9467 30.6309V30.1764ZM25.1452 24.4771L23.7223 23.6467H23.7155L23.0429 23.2707C24.2387 21.0998 25.1432 18.7827 25.7334 16.3785C26.4852 15.6015 27.2914 14.8784 28.146 14.2145L28.1569 14.205L28.1678 14.1969L28.2005 14.1672C28.2049 14.163 28.209 14.1585 28.2127 14.1537L28.2386 14.1253L28.2604 14.0969L28.2727 14.0766V14.0874C28.2776 14.2371 28.269 14.3869 28.2468 14.5351C28.2432 14.5515 28.2409 14.5683 28.24 14.5851C28.0548 18.1069 26.5503 21.9399 25.1452 24.4771ZM7.57294 21.1446C7.26215 22.1814 7.03451 23.241 6.89217 24.3135C6.88264 24.3797 6.8731 24.4487 6.86493 24.5123V24.5204C6.82046 24.8612 6.79096 25.2007 6.77643 25.5388C6.75737 25.8458 6.74512 26.1515 6.74512 26.4531C6.74512 29.8194 7.86568 32.3688 9.91618 33.651L7.48853 37.8328L6.37205 36.9956C2.14306 32.9815 2.61689 23.3938 7.76084 14.4931L7.76901 14.4782L9.94749 15.7185C9.53903 16.4177 9.17549 17.1264 8.84327 17.8392C8.84353 17.8428 8.84353 17.8464 8.84327 17.85C8.83658 17.8594 8.83066 17.8694 8.82557 17.8797C8.81841 17.891 8.81205 17.9028 8.80651 17.9149V17.9257C8.76975 18.0177 8.73299 18.1042 8.69623 18.1962C8.30524 19.0693 7.96608 19.9643 7.68051 20.8768C7.62468 20.9701 7.59609 21.058 7.57294 21.1446ZM14.875 29.5083C14.875 29.5232 14.8859 29.5381 14.8913 29.553C14.9303 29.6936 14.9657 29.8383 14.9975 29.9871C14.9975 30.0155 15.007 30.0453 15.0111 30.075V30.0953C15.0411 30.2454 15.071 30.401 15.1023 30.5687C15.1187 30.6742 15.1323 30.7824 15.1459 30.8919L15.1582 30.992C15.1677 31.0704 15.1731 31.1529 15.1813 31.2327C15.2208 31.84 15.233 32.4662 15.2358 33.1181L14.3562 32.6041C14.3562 30.5903 14.3235 28.6657 13.4208 27.0089C13.8202 27.3797 14.1547 27.8139 14.4107 28.2938L14.4638 28.4047C14.4638 28.4169 14.4719 28.4304 14.4774 28.4426C14.5046 28.4967 14.5318 28.5535 14.5591 28.6089C14.5863 28.6644 14.6231 28.7604 14.653 28.8375C14.6599 28.8613 14.669 28.8844 14.6803 28.9065C14.7388 29.0607 14.7905 29.2229 14.8396 29.388C14.8443 29.4298 14.8563 29.4705 14.875 29.5083ZM13.9396 33.2209L14.6911 33.6604C14.2206 33.7997 13.7399 33.9028 13.2533 33.9688C12.8569 34.0136 12.4569 34.0195 12.0593 33.9864H12.0225C11.9928 33.9862 11.9631 33.983 11.934 33.9769H11.9027C11.6266 33.9424 11.3535 33.8873 11.0858 33.8119C11.9817 33.7781 12.8626 33.563 13.9396 33.2209ZM11.7093 26.0081C13.5488 27.7203 13.6155 30.0655 13.6155 32.546C12.3411 32.9517 11.3649 33.1478 10.3246 33.0342C8.38034 31.817 7.43815 29.3217 7.49125 26.2502C9.10469 25.762 10.533 25.6768 11.7093 26.0081ZM15.9302 4.93382C15.9416 4.92853 15.9526 4.92219 15.9628 4.91489C16.0146 4.87972 16.0663 4.8432 16.1181 4.80534L16.2651 4.70255L16.3441 4.6471C16.7807 4.34955 17.2209 4.07365 17.6648 3.81938C19.7357 2.6292 21.7317 1.98677 23.5453 1.89886C23.5693 1.90159 23.5935 1.90159 23.6175 1.89886C23.74 1.8921 23.8653 1.8921 23.996 1.8921H24.0328C24.1185 1.88704 24.2044 1.88704 24.2901 1.8921H24.3173C24.3428 1.89754 24.3689 1.90026 24.3949 1.90022C24.4162 1.90228 24.4377 1.90228 24.4589 1.90022C25.4883 1.95248 26.4934 2.22955 27.4026 2.7117L25.3358 6.24572C24.2141 5.67591 22.9478 5.44861 21.6963 5.59248C20.2776 5.73719 18.7894 6.25113 17.2917 7.11807C15.697 8.06082 14.2459 9.22488 12.9824 10.575C11.7654 11.8517 10.687 13.252 9.76505 14.7528L8.01272 13.7587L7.95962 13.729L8.28231 13.215L8.34494 13.119C8.51786 12.8485 8.69759 12.578 8.89773 12.3075C8.91857 12.279 8.93509 12.2475 8.94675 12.2142C10.9959 9.23875 13.3977 6.73532 15.9302 4.93382ZM10.5833 16.1026L10.7808 15.7753C10.8065 15.7329 10.8234 15.6857 10.8304 15.6367C10.8374 15.5877 10.8344 15.5378 10.8216 15.4899C10.7959 15.3936 10.7327 15.3114 10.646 15.2613L10.4118 15.1261C11.3048 13.6755 12.3484 12.3219 13.5257 11.0876C14.7387 9.78862 16.1325 8.6687 17.6648 7.76185C19.0781 6.95036 20.4601 6.46618 21.7712 6.33363C22.245 6.28563 22.7227 6.29062 23.1954 6.34851C23.9337 6.96028 24.5155 7.73708 24.8933 8.61526L10.0142 17.1359C10.1939 16.7923 10.3846 16.4461 10.5833 16.1026ZM8.86506 19.6948C8.99032 19.3634 9.12511 19.0307 9.27352 18.6966L9.33071 18.5614C9.34705 18.5208 9.36475 18.4816 9.38109 18.441L9.43283 18.3287L25.2949 9.24281L26.1976 9.75405L25.7619 10.011L8.86506 19.6948ZM22.7529 0.956187C23.2144 0.972913 23.673 1.03682 24.1213 1.14689C22.0245 1.11307 19.6976 1.79337 17.2904 3.1756C17.0521 3.31085 16.8152 3.45421 16.5796 3.60163L16.5497 3.61651C16.3604 3.73147 16.1603 3.86536 15.9179 4.03442C12.721 6.20785 9.71058 9.46056 7.30608 13.3665L6.32576 12.7985C9.90529 7.0518 16.2637 0.631593 22.7502 0.956187H22.7529ZM0.919027 29.5705C-2.25935e-05 23.0665 3.01991 16.461 5.03773 12.9134L5.55512 13.2123C5.57076 13.226 5.58762 13.2382 5.6055 13.2488C5.62312 13.2581 5.64131 13.2662 5.65996 13.2732L7.11138 14.1131V14.1198C4.31747 18.9522 2.77619 24.139 2.76802 28.7144C2.76802 31.7724 3.44879 34.3299 4.72321 36.2058C2.64956 34.7992 1.4228 33.2317 0.919027 29.5705ZM17.2917 36.5331C13.9845 38.4414 10.8026 38.9445 8.27414 37.9708L8.92769 36.8428L10.3764 34.3556C10.8366 34.5246 11.3143 34.6425 11.8006 34.7072H11.8169C11.8795 34.718 11.9427 34.7243 12.0062 34.7262C12.1696 34.7411 12.3397 34.7492 12.5236 34.7492C12.7441 34.7492 13.0055 34.7356 13.3405 34.7059C14.1574 34.5878 14.9609 34.3912 15.7395 34.1189H15.7532L15.7899 34.1027H15.7981H15.8076L15.8199 34.0946L15.8498 34.0729C15.8595 34.0665 15.8686 34.0592 15.8771 34.0513L15.8852 34.0445L15.9016 34.0256L15.9261 33.9972L15.9397 33.9742V33.9647L15.9506 33.9431C15.9506 33.935 15.9506 33.9269 15.9615 33.9174C15.9623 33.9102 15.9623 33.9029 15.9615 33.8958C15.9615 33.8958 15.9615 33.8809 15.9615 33.8741C15.9615 33.8674 15.9615 33.8565 15.9615 33.8484C15.9621 33.8408 15.9621 33.8331 15.9615 33.8254C15.9622 33.8169 15.9622 33.8083 15.9615 33.7997C15.9622 33.7952 15.9622 33.7907 15.9615 33.7862V33.7767V32.4662C15.9615 32.0253 15.9411 31.6047 15.9043 31.2003C15.9043 31.1408 15.9043 31.0813 15.8948 31.0231C15.8948 31.0082 15.8948 30.992 15.8948 30.9771C15.8891 30.9508 15.8851 30.9241 15.8825 30.8973C15.8825 30.8703 15.8825 30.8419 15.8716 30.8148V30.7702C15.8621 30.6836 15.8526 30.5862 15.8335 30.4997C15.8335 30.478 15.8253 30.4578 15.8226 30.4361C15.7913 30.2427 15.7572 30.0534 15.7178 29.8694C15.6915 29.6849 15.6459 29.5036 15.5816 29.3284C15.5816 29.3122 15.5721 29.296 15.568 29.2798C15.5321 29.0659 15.4656 28.8582 15.3706 28.663C15.3664 28.6254 15.3558 28.5889 15.3392 28.5548C15.2957 28.4602 15.2507 28.3682 15.2031 28.2843C15.1854 28.2424 15.1677 28.2005 15.1486 28.1613C15.1266 28.0921 15.0945 28.0265 15.0533 27.9665C15.0475 27.9584 15.0425 27.9498 15.0383 27.9408C14.671 27.2029 14.1325 26.5623 13.4671 26.0717C13.3582 25.9932 13.2465 25.9216 13.1322 25.8526C13.1009 25.8296 13.0682 25.8052 13.0287 25.7809C13.0006 25.7656 12.9709 25.7534 12.9402 25.7444C12.6445 25.5848 12.3334 25.4552 12.0116 25.3576C11.9962 25.3507 11.9803 25.3453 11.964 25.3413C10.7018 24.9654 9.19183 25.0127 7.50214 25.4915C7.50214 25.4293 7.51031 25.367 7.5144 25.3048C7.5321 25.0884 7.55388 24.868 7.58111 24.6462C7.60834 24.4244 7.64102 24.2323 7.68187 24.0267C7.68187 24.0267 7.68187 24.0159 7.68187 24.0105C7.78275 23.3469 7.9191 22.6891 8.09033 22.0399C8.09033 22.0399 8.09033 22.0264 8.09033 22.0197C8.13254 21.8574 8.17883 21.6964 8.22649 21.5341C8.26189 21.4083 8.30001 21.2839 8.3395 21.1581C8.35175 21.1203 8.36401 21.0837 8.37762 21.0459C8.40349 20.9674 8.43072 20.8863 8.45659 20.8051L26.0506 10.7062L26.1391 10.6534L26.7899 10.2815L26.8144 10.3356C27.0806 10.938 27.2726 11.5701 27.3863 12.2183C27.4764 12.7165 27.5369 13.2196 27.5674 13.7249C22.6168 17.6282 19.635 23.0827 19.2442 28.8727C19.2349 28.9107 19.2317 28.9499 19.2347 28.989C19.2101 29.3839 19.1979 29.7793 19.1979 30.1751V31.4424C19.1979 31.4424 19.1979 31.4532 19.1979 31.4586V31.4992C19.1979 31.51 19.1979 31.5208 19.2047 31.533C19.2115 31.5452 19.2047 31.556 19.2156 31.5681C19.22 31.5797 19.225 31.5909 19.2306 31.602C19.2349 31.6124 19.2404 31.6224 19.2469 31.6317C19.2531 31.6432 19.2604 31.6541 19.2687 31.6642C19.2711 31.6696 19.2743 31.6746 19.2782 31.679L19.2891 31.6899C19.3002 31.7018 19.3121 31.7131 19.3245 31.7237L19.349 31.7426C19.3622 31.7529 19.3764 31.762 19.3912 31.7697L19.4157 31.7818C19.4338 31.7896 19.4525 31.7959 19.4716 31.8008H19.4893C19.5148 31.8063 19.5408 31.809 19.5669 31.8089C19.5902 31.8087 19.6134 31.8064 19.6363 31.8021H19.6595L19.703 31.7886L19.7289 31.7764L19.7643 31.7575L19.7888 31.7413L19.8051 31.7291C19.9263 31.6304 20.0489 31.5276 20.17 31.4221C20.2321 31.3891 20.286 31.3429 20.328 31.2868C21.6204 30.1523 22.8007 28.8979 23.853 27.5405L23.8653 27.5229L24.0763 27.2253C24.1717 27.0901 24.267 26.9548 24.3623 26.8196C24.6877 26.3827 25.0036 25.9121 25.3058 25.4184L25.4869 25.5226L26.3992 26.0473L27.0976 26.4531C24.4154 30.873 20.942 34.4449 17.2917 36.5331ZM27.9799 26.0933C27.9377 26.0703 27.8955 26.0473 27.8547 26.023L27.8397 26.0122L27.8152 25.9946L25.8069 24.8382C27.2501 22.232 28.7941 18.2895 28.997 14.6487C28.997 14.6216 29.0052 14.5946 29.0093 14.5675C29.0133 14.5405 29.0093 14.531 29.0093 14.5121C29.0093 14.4931 29.0161 14.4444 29.0174 14.4106V14.3673V14.2321V14.0969C29.0651 11.9004 28.5926 10.0881 27.6395 8.72075C27.5728 8.61256 27.5034 8.50706 27.4367 8.40698C27.4136 8.37483 27.3856 8.34653 27.3536 8.32313C27.3069 8.25691 27.2555 8.19409 27.1998 8.13513C27.1789 8.11349 27.1571 8.09185 27.1344 8.07021C27.0317 7.93986 26.9173 7.81899 26.7926 7.7091C26.7155 7.62427 26.6322 7.54516 26.5435 7.47242C26.4945 7.43184 26.4427 7.38992 26.3855 7.34799C26.371 7.33685 26.3574 7.32464 26.3447 7.31147C26.3049 7.27422 26.2621 7.2403 26.2167 7.21004C26.0936 7.10969 25.965 7.01622 25.8314 6.93008C25.8463 6.90051 25.8573 6.86914 25.8641 6.83676L28.2495 2.75769V2.74551C28.2495 2.74551 28.2495 2.74551 28.2495 2.73605V2.72658C33.6957 6.05502 33.5677 16.2284 27.9772 26.0933H27.9799Z" fill="white"/>
<path d="M21.4717 15.5831C21.4363 15.3775 21.262 14.9069 20.4968 14.9136C18.7704 14.9393 13.9709 17.8377 13.7149 19.623C13.2016 23.0731 14.0757 24.4134 14.8995 24.9287C15.2471 25.1443 15.6498 25.2561 16.0595 25.2506C16.6886 25.2506 17.3857 25.0139 18.0842 24.5473C20.3008 23.0664 22.1756 19.5107 21.4717 15.5831ZM17.5967 23.0407C16.9296 23.4856 16.3019 23.5817 15.8744 23.3206C15.2235 22.9149 14.9962 21.6652 15.2521 19.9016C15.3474 19.3254 16.8098 18.1136 18.3197 17.3589C19.168 16.9342 19.6472 16.8423 19.8556 16.8423C19.8845 16.8396 19.9137 16.8396 19.9427 16.8423C20.4043 19.581 19.1162 22.029 17.5967 23.0407ZM20.7283 18.8642C20.8162 18.1382 20.7969 17.4032 20.6711 16.6827C20.6711 16.6827 20.6711 16.6827 20.6711 16.6746C20.6453 16.5393 20.5064 16.0998 19.8542 16.0998H19.8297C18.4613 16.1228 14.7524 18.3489 14.5196 19.7893C14.1275 22.4862 14.8273 23.5411 15.4836 23.9509C15.7643 24.1248 16.0895 24.215 16.4203 24.2106C16.92 24.2106 17.4701 24.0253 18.0202 23.6588C18.0651 23.629 18.1087 23.5979 18.1563 23.5654C18.0024 23.6956 17.8415 23.8175 17.6743 23.9306C16.7662 24.5379 15.9043 24.6731 15.3093 24.2998C14.4229 23.7453 14.1152 22.0804 14.4652 19.7298C14.6163 18.6789 17.5967 16.5623 19.59 15.8658C19.8903 15.7464 20.208 15.676 20.5309 15.6575C20.6022 15.6509 20.6741 15.663 20.7392 15.6927C20.7404 15.6985 20.7404 15.7045 20.7392 15.7103C20.9248 16.7537 20.922 17.8217 20.731 18.8642H20.7283Z" fill="white"/>
</g>
<defs>
<clipPath id="clip0_116_102">
<rect width="33" height="39" fill="white" transform="translate(0 0.200195)"/>
</clipPath>
</defs>
</svg>
