<svg width="43" height="34" viewBox="0 0 43 34" fill="none" xmlns="http://www.w3.org/2000/svg">
<path d="M32.0641 33.2006C31.3013 33.2133 30.5526 32.9926 29.9174 32.5679L29.9022 32.5596L27.3597 31.0772C27.3514 31.0734 27.3436 31.0688 27.3363 31.0634L27.3129 31.0468C26.6947 30.5846 26.2107 29.9645 25.9111 29.2509C25.6538 29.5191 25.3433 29.73 24.9998 29.8699C24.6563 30.0098 24.2873 30.0757 23.9169 30.0632C23.7423 30.4638 23.4166 30.812 22.5054 30.8465C22.4848 30.8833 22.4613 30.9184 22.4353 30.9515C22.2237 31.2112 21.8141 31.3659 21.3083 31.3659H21.2589H21.2286L18.2641 30.9653C17.994 30.936 17.7386 30.8269 17.5302 30.6517L15.0454 28.6596L13.2807 28.6098H13.2669C12.8928 28.5928 12.536 28.4464 12.2568 28.1954L11.9489 27.9191C11.7823 27.7701 11.6493 27.587 11.559 27.3821C11.4687 27.1771 11.4231 26.9551 11.4253 26.731V26.2364C11.1483 26.1402 10.9042 25.9667 10.7216 25.7363L10.1719 25.0621C9.94372 24.7917 9.81683 24.4496 9.81316 24.0951L9.80491 23.8188C9.45321 23.6846 9.15621 23.4361 8.96105 23.1128C8.96176 23.1096 8.96176 23.1063 8.96105 23.1032L8.62158 22.5271C8.35316 22.0997 8.22749 21.5973 8.26287 21.0931V21.0834C7.8099 20.8174 7.44949 20.4175 7.23072 19.9381C6.55108 19.9128 5.89211 19.6965 5.3286 19.3137L5.29699 19.2985L2.73793 17.8148L2.71319 17.8009C2.70483 17.7957 2.69701 17.7897 2.68982 17.783C1.7099 17.0453 1.32645 16.2398 1.02684 15.1816C1.02684 15.1816 1.02684 15.1678 1.02684 15.1609C0.591167 13.253 0.860542 11.6588 1.21238 10.2206C1.21174 10.216 1.21174 10.2114 1.21238 10.2068C1.79986 8.11156 2.78557 6.15054 4.11504 4.43213C5.61035 2.57262 7.04656 1.40801 8.79063 0.649568L8.80987 0.641279C9.91761 0.226828 11.1463 -0.0632885 12.5866 0.558389L12.61 0.569441L12.6361 0.584637L15.1622 2.04903L15.1924 2.06699C16.2259 2.56572 16.9791 3.55902 17.3406 4.88802C20.3051 5.02618 23.0469 5.77771 24.4433 6.22808C24.8336 6.34706 25.194 6.54885 25.5001 6.81983C25.8062 7.09081 26.0508 7.42467 26.2176 7.79885L27.2002 9.92223V9.93052C27.3207 10.1981 27.4035 10.4813 27.4463 10.7719L28.1183 11.3728C28.9285 12.0701 29.6767 12.8369 30.3544 13.6647C30.8437 14.2588 30.9962 14.4425 31.9074 14.7174C32.68 14.1963 33.5372 13.8148 34.4404 13.5901H34.4651C35.4272 13.4133 36.1886 13.3953 37.2029 13.8291C37.2115 13.832 37.2197 13.8357 37.2276 13.8402L37.2551 13.854L39.7743 15.3184L39.7922 15.3294C41.3163 16.0616 42.1959 17.8286 42.1959 20.1744C42.1959 24.609 39.0899 30.0204 35.2719 32.2377C34.1573 32.8745 33.0578 33.2006 32.0641 33.2006ZM38.0948 15.7024C37.2372 15.7024 36.2738 15.9967 35.2774 16.5769C31.6614 18.6727 28.7203 23.7912 28.7203 27.9882C28.7203 29.7427 29.2481 31.1117 30.206 31.8439C30.239 31.8702 30.2692 31.8895 30.2994 31.9103C31.4525 32.7212 33.1251 32.5941 34.8981 31.5676C38.5085 29.4719 41.4442 24.3562 41.4442 20.1633C41.4442 18.1201 40.7212 16.6032 39.4596 15.9981L39.4211 15.9801C39.0043 15.7919 38.5517 15.6971 38.0948 15.7024ZM27.7527 30.4293L28.5293 30.881C28.1356 29.969 27.943 28.9821 27.9644 27.9882C27.9644 23.5494 31.0746 18.1353 34.8981 15.9193C35.8601 15.3667 36.7974 15.0407 37.6757 14.9633L36.8964 14.5102C36.0635 14.1579 35.4492 14.1731 34.6163 14.3251C33.7471 14.5437 32.9253 14.9212 32.1919 15.4386C32.1865 15.443 32.1805 15.4468 32.1741 15.4496C31.7967 15.7029 31.4354 15.9798 31.0924 16.2785C30.8932 16.4471 30.6293 16.7027 30.4712 16.856C29.6391 17.7045 28.9093 18.6486 28.297 19.6687C27.697 20.6527 27.2035 21.6985 26.825 22.7882C26.825 22.8061 26.8168 22.8227 26.8113 22.8407C26.4574 23.8984 26.2434 24.9983 26.175 26.1121V26.2723C26.1763 26.2801 26.1763 26.2881 26.175 26.2958C26.1533 26.9463 26.2184 27.5968 26.3688 28.2299C26.6093 29.1859 27.0614 29.9029 27.7527 30.4293ZM18.3631 30.2013L19.7759 30.392C19.2056 30.2176 18.6761 29.9295 18.2188 29.5451C17.4051 28.8281 16.0349 27.5295 15.5951 27.0377C15.5282 26.9626 15.4938 26.8638 15.4993 26.7632C15.5048 26.6625 15.5499 26.5682 15.6247 26.501C15.6994 26.4337 15.7976 26.3991 15.8977 26.4047C15.9979 26.4102 16.0917 26.4556 16.1586 26.5307C16.5819 27.0045 17.9192 28.2714 18.7177 28.9759C19.5574 29.7206 20.9936 29.9637 22.1728 30.0881C22.1879 30.0867 22.2031 30.0867 22.2182 30.0881C22.669 30.1032 22.9054 30.0521 23.0428 29.9692C21.7509 29.8311 20.6816 29.4014 19.7883 28.661C18.807 27.8472 17.0849 25.9242 16.6864 25.4531C16.6541 25.4151 16.6297 25.3711 16.6144 25.3236C16.5991 25.2761 16.5933 25.226 16.5972 25.1762C16.6012 25.1264 16.6148 25.0779 16.6374 25.0335C16.6601 24.989 16.6911 24.9495 16.729 24.9171C16.7668 24.8847 16.8106 24.8601 16.8578 24.8447C16.9051 24.8294 16.9549 24.8235 17.0044 24.8275C17.0539 24.8315 17.1022 24.8452 17.1464 24.8679C17.1906 24.8906 17.23 24.9219 17.2622 24.9599C17.636 25.402 19.3403 27.3085 20.2693 28.0752C21.1682 28.8198 22.2883 29.2053 23.6942 29.2536H23.7272C23.7501 29.2561 23.7726 29.2607 23.7946 29.2674C23.9858 29.3127 24.1842 29.3188 24.3778 29.2854C24.5714 29.2519 24.7564 29.1796 24.9215 29.0726C25.0783 28.9787 25.2224 28.8649 25.3504 28.7342C24.3292 28.7024 23.227 28.5643 22.2388 27.6967C21.285 26.8678 18.6861 24.4695 18.1487 23.881C18.0809 23.8066 18.0453 23.7082 18.0496 23.6074C18.054 23.5066 18.098 23.4117 18.172 23.3435C18.246 23.2754 18.3439 23.2396 18.4442 23.244C18.5445 23.2484 18.6389 23.2927 18.7067 23.367C19.2097 23.9196 21.7866 26.2917 22.7349 27.1247C23.587 27.8721 24.534 27.9536 25.5345 27.9785C25.4534 27.5021 25.4134 27.0195 25.4149 26.5362C24.9306 26.3317 24.4812 26.052 24.0832 25.7073C22.9837 24.7554 20.7847 22.7688 20.3545 22.2121C20.3221 22.1728 20.2979 22.1274 20.2833 22.0786C20.2687 22.0297 20.264 21.9784 20.2696 21.9276C20.2752 21.8769 20.2909 21.8279 20.3157 21.7834C20.3406 21.7389 20.3741 21.6999 20.4142 21.6687C20.4544 21.6375 20.5004 21.6148 20.5495 21.6018C20.5986 21.5889 20.6498 21.5861 20.7 21.5935C20.7503 21.6008 20.7985 21.6183 20.8418 21.6449C20.8852 21.6714 20.9228 21.7064 20.9524 21.7479C21.3111 22.2135 23.3726 24.0965 24.5793 25.134C24.8419 25.3634 25.1323 25.5584 25.4438 25.7142C25.5307 24.7067 25.7317 23.7125 26.043 22.7509L24.9298 21.0143L23.1692 19.2377C22.2628 18.3418 21.7371 17.1276 21.7028 15.8503L21.6616 14.4301C21.6535 14.3896 21.6493 14.3484 21.6492 14.3071C21.6395 14.2186 21.6344 14.1296 21.6341 14.0405C21.6341 14.0101 21.6341 13.9728 21.6341 13.9452C21.6086 13.9353 21.5824 13.9274 21.5557 13.9217H21.5337C21.4877 13.9195 21.4418 13.9149 21.3963 13.9079H21.3619L18.7836 13.6537C18.5088 13.6537 18.3507 13.6799 18.1707 13.8208L18.1377 13.8498C18.133 13.8553 18.1279 13.8603 18.1226 13.865C18.0965 13.8927 18.0717 13.9148 18.0442 13.9396L18.0236 13.9576L16.9241 15.2811C16.3744 15.9318 15.5951 16.197 14.8804 15.9718L13.4209 15.5353H13.4057C13.3033 15.5016 13.2087 15.4475 13.1275 15.3763C13.0463 15.3051 12.9801 15.2182 12.933 15.1208L12.8725 15.1098L12.8244 15.0987C12.7823 15.0852 12.7428 15.0647 12.7076 15.0379C12.6629 15.0035 12.6263 14.9597 12.6004 14.9095C12.5753 14.8606 12.5613 14.8069 12.5591 14.752C12.5555 14.7053 12.5611 14.6583 12.5756 14.6138C12.5806 14.5976 12.587 14.5819 12.5949 14.5668C12.9096 13.8526 13.2903 13.0983 13.9404 12.42C14.0339 12.3187 14.1555 12.248 14.2895 12.2169L14.7389 11.5068L14.7609 11.4778L15.9731 9.55198C16.1722 9.22043 16.4711 8.96111 16.8265 8.8115C16.9268 8.77047 17.0308 8.73947 17.1371 8.71894H17.155L23.5664 7.71735H23.587C23.7071 7.70342 23.8288 7.71584 23.9436 7.75377C24.0585 7.79169 24.1638 7.85421 24.2522 7.93701L26.2822 9.73296L25.5386 8.11246C25.4154 7.83494 25.2337 7.5876 25.0062 7.38749C24.7787 7.18738 24.5106 7.03927 24.2206 6.95337C22.8092 6.50024 20.0137 5.7266 17.0382 5.6368H17.0258C16.2803 5.62016 15.5344 5.64969 14.7925 5.72522C14.2555 5.7863 13.7236 5.8865 13.201 6.025C11.7331 6.41735 10.5718 7.1081 9.74444 8.08206C8.98272 9.01685 8.37911 10.0712 7.95776 11.2029C7.42039 12.7225 7.29532 13.9217 7.55507 15.0946C7.59706 15.2444 7.648 15.3916 7.70763 15.5353C7.71546 15.5541 7.72189 15.5735 7.72687 15.5933C7.75329 15.6584 7.7831 15.722 7.8162 15.784C7.97619 15.7328 8.14197 15.7021 8.3096 15.6928C8.64387 15.6549 8.98214 15.7074 9.28952 15.8447L9.60013 15.9829C9.91016 16.1222 10.1743 16.3474 10.3615 16.6322C10.5714 16.9024 10.6959 17.2296 10.7189 17.5716L10.7354 17.7567C10.7361 17.7682 10.7361 17.7798 10.7354 17.7913V18.1601L10.8879 18.2278C10.923 18.2439 10.9555 18.2654 10.9841 18.2914L11.3882 18.6492C11.5934 18.8238 11.7559 19.0437 11.8629 19.2917C11.9699 19.5396 12.0186 19.8091 12.0053 20.0791L11.9778 20.9798C12.0995 21.0453 12.2158 21.1206 12.3255 21.205L12.7378 21.5282C12.9592 21.724 13.1355 21.9659 13.2542 22.2373C13.3729 22.5086 13.4312 22.8027 13.425 23.099L13.3893 24.1752C13.7576 24.2636 14.0105 24.4653 14.3513 24.7375C14.7093 25.0259 14.9451 25.4402 15.011 25.8966L15.1814 27.0418L15.6116 28.147L18.0016 30.0411C18.0982 30.1257 18.219 30.1774 18.3466 30.1889L18.3631 30.2013ZM13.3068 27.8555L14.7059 27.8956L14.464 27.2781C14.4539 27.2517 14.4466 27.2244 14.442 27.1966L14.2688 26.014C14.2303 25.7465 14.0923 25.5036 13.8827 25.3343C13.4566 24.9958 13.3329 24.9046 12.9962 24.8922C12.8602 24.8976 12.725 24.9152 12.5921 24.9447L13.3851 25.5249C13.4379 25.5634 13.4799 25.6149 13.5071 25.6744C13.5343 25.7339 13.5458 25.7995 13.5404 25.8648L13.5212 26.0872C13.5226 26.1047 13.5226 26.1222 13.5212 26.1397C13.5207 26.179 13.5147 26.2181 13.5033 26.2558L13.4442 26.8802C13.4385 27.0055 13.3843 27.1236 13.2931 27.2093C13.202 27.295 13.0811 27.3415 12.9563 27.3389C12.9348 27.341 12.9132 27.341 12.8917 27.3389C12.8707 27.341 12.8495 27.341 12.8285 27.3389C12.6511 27.3407 12.4763 27.2959 12.3214 27.209C12.3624 27.2596 12.4085 27.3059 12.4588 27.3471L12.7639 27.6234C12.9123 27.7623 13.1044 27.8444 13.3068 27.8555ZM12.6196 26.474C12.6458 26.5051 12.6781 26.5305 12.7144 26.5486L12.7612 26.0057L12.5536 25.8537V26.0734C12.5529 26.212 12.5752 26.3497 12.6196 26.4809V26.474ZM11.3071 25.2473C11.3476 25.2983 11.3937 25.3447 11.4445 25.3854C11.4752 25.1216 11.5696 24.8693 11.7194 24.6504C11.7373 24.6256 11.7565 24.6021 11.7757 24.5786C11.7935 24.5566 11.8128 24.5358 11.8335 24.5164C12.0514 24.3033 12.3359 24.1725 12.6388 24.1462L12.6746 23.0742C12.677 22.8975 12.6428 22.7222 12.5742 22.5595C12.5056 22.3969 12.404 22.2503 12.276 22.1292L11.872 21.8073C11.7564 21.7217 11.6331 21.6472 11.5036 21.5849C11.2872 21.5705 11.07 21.5991 10.8645 21.6692L11.7593 22.3599C11.8058 22.3954 11.8435 22.4414 11.8693 22.4942C11.8951 22.547 11.9082 22.6051 11.9077 22.6638V22.9401C11.9149 22.9709 11.9186 23.0025 11.9187 23.0341V23.1004C11.9188 23.134 11.9146 23.1674 11.9063 23.1999V23.8492C11.9074 23.978 11.858 24.102 11.7689 24.1946C11.7622 24.2022 11.7549 24.2091 11.7469 24.2153C11.6566 24.2942 11.5408 24.3374 11.4212 24.3368C11.4015 24.3389 11.3817 24.3389 11.3621 24.3368C11.3406 24.339 11.3189 24.339 11.2975 24.3368C11.1606 24.3399 11.0245 24.315 10.8974 24.2637C10.7703 24.2124 10.6549 24.1358 10.5581 24.0384V24.0785C10.5587 24.2608 10.6246 24.4369 10.7436 24.5745L11.2933 25.2486C11.2933 25.2486 11.303 25.2528 11.3043 25.2542L11.3071 25.2473ZM11.0872 23.4803C11.1042 23.5003 11.1241 23.5175 11.1463 23.5314V22.8407L10.9181 22.6638V23.1722C10.9154 23.2063 10.9195 23.2406 10.9301 23.2731C10.9407 23.3056 10.9577 23.3357 10.98 23.3615L11.0721 23.4596L11.0803 23.4679L11.0872 23.4803ZM9.59601 22.7191C9.63986 22.7892 9.6915 22.8541 9.74994 22.9125C9.72107 22.4221 9.7197 21.9358 9.92585 21.5462C9.84874 21.5774 9.76453 21.5865 9.68259 21.5725H9.62624C9.40154 21.5709 9.18329 21.4968 9.00365 21.3611C9.01945 21.6363 9.1056 21.9028 9.25379 22.1347L9.59601 22.7191ZM25.5524 20.575L26.3674 21.8474C26.7234 20.956 27.1528 20.096 27.651 19.2764C28.2942 18.2029 29.0614 17.2096 29.9366 16.3172C30.1551 16.1058 30.3998 15.871 30.5991 15.7011C30.7983 15.5311 30.977 15.3847 31.1488 15.2521C30.5001 14.9896 30.2335 14.6995 29.7744 14.1469C29.1231 13.3474 28.4024 12.6077 27.6208 11.9365L26.8402 11.2457L23.752 8.51171C23.7286 8.48834 23.7011 8.46959 23.6709 8.45645L17.2746 9.45666C17.217 9.46766 17.1608 9.4848 17.1069 9.50778C16.8984 9.59771 16.7231 9.75081 16.6053 9.94571L15.378 11.895L15.356 11.9268L15.1347 12.2749L15.2364 12.286C15.3264 12.2951 15.4132 12.3247 15.4901 12.3726C15.567 12.4205 15.6321 12.4853 15.6803 12.5623C15.9552 13.0113 15.6143 13.6039 14.306 15.0131L15.0838 15.2479C15.5085 15.3861 15.9731 15.2092 16.3208 14.7906L17.4835 13.3967C17.4995 13.371 17.5179 13.347 17.5385 13.3249C17.6979 13.0486 17.5714 12.717 17.489 12.496C17.4725 12.4545 17.4574 12.4172 17.4478 12.3854C17.4182 12.2983 17.421 12.2034 17.4558 12.1183C17.4906 12.0331 17.555 11.9636 17.6369 11.9226C17.7189 11.8815 17.8129 11.8718 17.9015 11.8952C17.99 11.9186 18.0671 11.9735 18.1184 12.0497C18.1665 12.123 18.2146 12.2017 18.2559 12.2832C18.4153 12.5595 18.5555 12.7902 18.8441 12.8828L21.3881 13.1328C22.1618 13.0734 22.3309 12.9809 22.6085 12.8275L22.7459 12.7529C22.828 12.7088 22.9234 12.6967 23.0138 12.7189C23.1043 12.7411 23.1833 12.796 23.236 12.8732C23.2886 12.9504 23.311 13.0444 23.2989 13.1372C23.2869 13.2299 23.2412 13.315 23.1706 13.376C23.0703 13.463 22.9741 13.5349 22.8806 13.6039C22.5824 13.8236 22.4161 13.9466 22.401 14.3721L22.4477 15.8199C22.4711 16.9066 22.9183 17.9405 23.6929 18.6989L25.4795 20.4949C25.4908 20.5057 25.5013 20.5173 25.5112 20.5294C25.526 20.5436 25.5398 20.5588 25.5524 20.575ZM10.2461 21.0779C10.2482 21.1059 10.2482 21.1341 10.2461 21.1621C10.5336 20.9508 10.8795 20.8349 11.2356 20.8306L11.259 20.0569C11.2688 19.9006 11.2419 19.7442 11.1806 19.6002C11.1192 19.4562 11.0251 19.3288 10.9058 19.228L10.5443 18.9075L10.2873 18.7915C9.83514 18.7777 9.50392 18.8136 9.29777 18.9006C9.28121 18.9073 9.26514 18.9152 9.24967 18.9241L9.92723 19.3745C9.96364 19.3915 9.99706 19.4144 10.0262 19.4422L10.0963 19.4891C10.1488 19.5235 10.1918 19.5707 10.2213 19.6262C10.2509 19.6818 10.266 19.7439 10.2653 19.8069V19.9243C10.2653 19.9409 10.2653 19.9561 10.2653 19.9727L10.2461 21.0779ZM9.42146 20.709C9.44393 20.7325 9.46934 20.7529 9.49705 20.7698V20.0307L9.47369 19.9851L9.26478 19.847V20.4078C9.26545 20.412 9.26545 20.4162 9.26478 20.4203V20.4272C9.26366 20.4603 9.2693 20.4934 9.28135 20.5243C9.29341 20.5552 9.31162 20.5832 9.33488 20.6068V20.6137L9.42146 20.709ZM7.84781 19.4532C7.93072 19.6968 8.06477 19.9197 8.24088 20.1067C8.23401 19.9602 8.22989 19.8207 8.22989 19.6922C8.22989 19.5914 8.22989 19.4947 8.23813 19.4035C8.14014 19.363 8.052 19.3018 7.97975 19.2239L7.75711 19.0001C7.76401 19.1462 7.79226 19.2905 7.84094 19.4284C7.84183 19.4366 7.84229 19.4449 7.84232 19.4532H7.84781ZM13.4827 2.44691C12.6196 2.44691 11.6576 2.73978 10.6598 3.31863C7.04656 5.40885 4.10817 10.5259 4.10817 14.7257C4.10817 16.5438 4.67028 17.9377 5.69144 18.6492C6.07969 18.925 6.53042 19.0988 7.00258 19.1548C6.99132 19.0442 6.98765 18.933 6.99158 18.8219L7.00533 18.2237L7.05618 17.2566L6.44459 16.9168L6.42122 16.903L6.39648 16.885C5.89435 16.5251 5.51513 16.018 5.31074 15.433C4.84483 14.1441 4.95615 13.0016 5.14444 11.9572C5.57086 9.97024 6.4958 8.12597 7.83132 6.59971C9.0064 5.29971 10.0468 4.57719 11.3181 4.17241L11.3442 4.1655C12.0699 3.99143 12.643 3.94031 13.4209 4.20004H13.4332H13.447L13.6215 4.26911C13.6397 4.27572 13.6572 4.28405 13.6737 4.29398L14.563 4.81757L14.6688 4.86868L14.8282 4.94743C15.3628 4.89493 15.9401 4.86592 16.5489 4.86316C16.2246 3.83117 15.6322 3.09483 14.8172 2.72044C14.3963 2.53177 13.9393 2.43838 13.4786 2.44691H13.4827ZM8.04435 18.1961C8.0698 18.2342 8.09929 18.2694 8.13231 18.3011L8.17216 17.6904L8.06221 17.6048L8.04435 18.1961ZM7.96463 16.57L8.78925 17.2124C8.8381 17.2508 8.8769 17.3005 8.90229 17.3573C8.92768 17.4141 8.93888 17.4763 8.93494 17.5385L8.88958 18.2416C8.92119 18.2251 8.95418 18.2085 8.98991 18.1933C9.30692 18.0736 9.64364 18.0155 9.9822 18.022V17.8065L9.96708 17.6407C9.95644 17.4425 9.88435 17.2527 9.76093 17.0978C9.64953 16.9145 9.48504 16.7699 9.28952 16.6833L8.97754 16.5452C8.78999 16.4668 8.58552 16.4382 8.38382 16.4623C8.15705 16.4802 8.03335 16.512 7.98662 16.5645L7.97563 16.5783H7.96738L7.96463 16.57ZM3.13649 17.1655L3.92263 17.6186C3.55292 16.8173 3.35914 15.8378 3.35914 14.7257C3.35227 10.2856 6.46108 4.87006 10.2832 2.65966C11.1293 2.14422 12.0764 1.81903 13.0594 1.70642L12.2733 1.25052C11.1449 0.769759 10.2117 0.932776 9.08062 1.34999C7.46024 2.05732 6.11474 3.15285 4.71701 4.8977C3.44807 6.53806 2.50718 8.40992 1.94629 10.4099C1.4955 12.2445 1.44052 13.5722 1.76213 14.9827C2.01776 15.9028 2.32836 16.5562 3.13649 17.1655ZM6.84728 16.2606L7.184 16.4554C7.20215 16.4004 7.2242 16.3469 7.24997 16.2951C7.15937 16.1462 7.0821 15.9894 7.01907 15.8268C7.0128 15.812 7.00775 15.7968 7.00395 15.7812C6.94008 15.6213 6.88502 15.4581 6.83903 15.2921C6.83903 15.2921 6.83903 15.2783 6.83903 15.2714C6.54354 13.9465 6.67548 12.6106 7.26783 10.9404C7.71731 9.72764 8.36328 8.59797 9.17957 7.59716C10.099 6.49886 11.3827 5.7266 12.9989 5.29142C13.1982 5.23755 13.4016 5.18919 13.6078 5.14637L13.3178 4.97506L13.1803 4.91842C12.5784 4.71948 12.1358 4.75816 11.5311 4.90046C10.4028 5.26241 9.46956 5.92139 8.39619 7.10258C7.15033 8.52664 6.28613 10.2464 5.88522 12.0995C5.69144 13.1729 5.63921 14.1109 6.02266 15.1567C6.1717 15.6015 6.45639 15.9877 6.83628 16.2606H6.84728ZM13.4868 14.4397L13.7617 14.4936C14.541 13.6647 14.8488 13.2351 14.9629 13.0209L14.4709 12.9643C14.0648 13.4011 13.7291 13.8989 13.4758 14.4397H13.4868Z" fill="white"/>
</svg>
