<svg width="40" height="40" viewBox="0 0 40 40" fill="none" xmlns="http://www.w3.org/2000/svg">
<path d="M0 0V40H40.0004V0H0ZM15.9798 27.3523H12.9453V17.549H15.9798V27.3523ZM14.4454 16.2657C13.9676 16.2636 13.5102 16.0718 13.1737 15.7324C12.8373 15.3931 12.6494 14.9341 12.6513 14.4563C12.6494 13.9785 12.8373 13.5195 13.1738 13.1803C13.5102 12.841 13.9676 12.6493 14.4454 12.6473C14.9233 12.6492 15.3808 12.8409 15.7174 13.1801C16.054 13.5194 16.2421 13.9784 16.2403 14.4563C16.2421 14.9342 16.054 15.3933 15.7175 15.7326C15.3809 16.0719 14.9233 16.2637 14.4454 16.2657ZM27.3491 27.3523H24.3291V22.2063C24.3291 20.7951 23.7929 20.0069 22.6772 20.0069C21.4625 20.0069 20.8278 20.8278 20.8278 22.2063V27.3523H17.918V17.549H20.8286V18.8698C20.8286 18.8698 21.7036 17.2498 23.7832 17.2498C25.8627 17.2498 27.3499 18.5197 27.3499 21.1448L27.3491 27.3523Z" fill="white" fill-opacity="0.4"/>
</svg>
