<svg width="10" height="15" viewBox="0 0 10 15" fill="none" xmlns="http://www.w3.org/2000/svg">
<path fill-rule="evenodd" clip-rule="evenodd" d="M5.01121 5.41822e-07C5.66771 4.70686e-07 6.31778 0.137143 6.92428 0.403616C7.53079 0.67009 8.08184 1.06066 8.54595 1.55302C9.01006 2.04537 9.37811 2.62988 9.62914 3.27312C9.88017 3.91636 10.0093 4.60573 10.009 5.30187C10.009 8.46431 8.11107 11.2338 6.36683 13.7782C6.20416 14.0177 6.04599 14.2453 5.84264 14.5472C5.74793 14.6877 5.623 14.8021 5.4782 14.8811C5.33339 14.9601 5.17294 15.0013 5.0101 15.0013C4.84727 15.0013 4.68676 14.9601 4.54195 14.8811C4.39715 14.8021 4.27222 14.6877 4.17751 14.5472C3.97417 14.2453 3.81599 14.0129 3.65332 13.7782C1.90908 11.2338 0.011231 8.46431 0.011231 5.30187C0.010934 4.60553 0.140009 3.91596 0.391177 3.27256C0.642345 2.62917 1.01068 2.04456 1.47503 1.55217C1.93938 1.05978 2.49065 0.669276 3.09741 0.402944C3.70417 0.136611 4.35451 -0.00031433 5.01121 5.41822e-07ZM5.01121 2.80785C4.46765 2.80797 3.94095 3.00791 3.52082 3.3736C3.10069 3.7393 2.81312 4.24815 2.70709 4.81344C2.60106 5.37874 2.68312 5.96552 2.93932 6.47385C3.19552 6.98218 3.61 7.38061 4.11214 7.60126C4.61429 7.82191 5.17302 7.85114 5.69321 7.68397C6.2134 7.5168 6.66286 7.16357 6.96499 6.68445C7.26713 6.20533 7.40328 5.62995 7.35024 5.05633C7.2972 4.48271 7.05828 3.94635 6.67413 3.53858C6.45599 3.30665 6.1968 3.1227 5.91143 2.9973C5.62606 2.87191 5.32011 2.80752 5.01121 2.80785ZM6.14089 4.09679C5.87588 3.81577 5.52717 3.64088 5.15418 3.60192C4.7812 3.56297 4.407 3.66236 4.09538 3.88315C3.78375 4.10394 3.554 4.43247 3.4452 4.81277C3.3364 5.19307 3.35528 5.60162 3.4987 5.96878C3.64212 6.33595 3.9012 6.639 4.23173 6.82635C4.56226 7.01369 4.9438 7.07373 5.31139 6.9962C5.67898 6.91868 6.00986 6.70838 6.24763 6.40118C6.4854 6.09397 6.61538 5.70885 6.61539 5.31143C6.61576 5.08579 6.57403 4.86232 6.4926 4.65385C6.41117 4.44538 6.29162 4.25606 6.14089 4.09679ZM8.01167 2.11067C7.41435 1.47865 6.65385 1.04845 5.82615 0.87438C4.99845 0.700308 4.14065 0.790169 3.36108 1.13262C2.5815 1.47506 1.91509 2.05476 1.44596 2.79849C0.976824 3.54223 0.726005 4.41667 0.725174 5.31143C0.725174 8.22231 2.55301 10.8864 4.22947 13.3325C4.42152 13.6129 4.61584 13.8955 4.75592 14.1064C4.78275 14.1459 4.81745 14.1786 4.85758 14.2022C4.9004 14.2245 4.94772 14.2352 4.99537 14.2334C5.04229 14.235 5.08888 14.2243 5.13096 14.2022C5.17109 14.1786 5.20579 14.1459 5.23262 14.1064C5.3727 13.8955 5.56703 13.6129 5.75907 13.3325C7.43553 10.8864 9.26337 8.22231 9.26337 5.31143C9.26576 4.71549 9.15679 4.12496 8.94272 3.57394C8.72866 3.02291 8.41374 2.52235 8.01619 2.10111L8.01167 2.11067Z" fill="#009FE3"/>
</svg>
