<svg width="14" height="15" viewBox="0 0 14 15" fill="none" xmlns="http://www.w3.org/2000/svg">
<path fill-rule="evenodd" clip-rule="evenodd" d="M4.51205 6.36385C4.8794 7.12949 5.35122 7.8433 5.91472 8.48593C6.44791 9.10881 7.07032 9.65379 7.76277 10.1041C7.86832 10.1806 7.99059 10.2321 8.12006 10.2548C8.16633 10.2587 8.21234 10.2447 8.24805 10.2158L9.50938 9.17685C9.72472 9.00135 9.99872 8.9089 10.2794 8.91704C10.56 8.92518 10.8279 9.03333 11.0321 9.221C11.4392 9.59849 11.8525 9.96126 12.2721 10.3093C12.6916 10.6574 13.1201 10.9976 13.5574 11.3301C13.6891 11.4313 13.7957 11.56 13.8694 11.7067C13.945 11.8555 13.986 12.0187 13.9894 12.1846C13.9926 12.3499 13.9589 12.5138 13.8908 12.6652C13.8206 12.8155 13.7167 12.9487 13.5867 13.0548L11.7494 14.5717C11.4978 14.7813 11.1929 14.9213 10.8667 14.9768C10.5392 15.0319 10.2024 14.9977 9.89343 14.8781C7.40026 13.9506 5.18979 12.4214 3.46941 10.434C1.73892 8.45224 0.555892 6.07339 0.0321051 3.5223C-0.0351066 3.20664 -0.0139275 2.87919 0.0934332 2.57425C0.203056 2.27001 0.395697 2.00061 0.650725 1.79503L2.51739 0.265159C2.64682 0.158066 2.7989 0.0800285 2.96277 0.0365859H2.98673C3.14589 0.00408073 3.31025 0.00408073 3.46941 0.0365859C3.63667 0.0671367 3.79449 0.134674 3.93074 0.233991C4.06847 0.332097 4.18078 0.460173 4.25873 0.608018C4.51473 1.07555 4.78675 1.54307 5.07475 2.01061C5.36275 2.47814 5.66138 2.93701 5.97071 3.38723C6.12814 3.61391 6.19373 3.88938 6.15483 4.16042C6.11592 4.43146 5.97532 4.67883 5.7601 4.85476L4.49076 5.89372C4.47261 5.90843 4.45777 5.92663 4.44721 5.9472C4.43665 5.96776 4.43062 5.99025 4.42943 6.01321C4.42932 6.13892 4.46038 6.26278 4.52006 6.37424L4.51205 6.36385ZM5.25606 9.02619C4.64358 8.32473 4.13056 7.54635 3.73074 6.71191C3.60641 6.47072 3.54855 6.20222 3.56277 5.93269C3.57196 5.79922 3.60883 5.66895 3.67117 5.54976C3.7335 5.43056 3.81996 5.32489 3.9254 5.23917L5.1974 4.20021C5.24872 4.15662 5.28272 4.09688 5.29343 4.03139C5.30253 3.96492 5.28637 3.89749 5.24805 3.84177C4.92539 3.37424 4.6214 2.90153 4.32807 2.4288C4.03473 1.95607 3.75743 1.47294 3.49343 0.987228C3.4734 0.951935 3.44616 0.921006 3.41342 0.896325C3.37928 0.872569 3.34011 0.856593 3.29877 0.849574C3.261 0.841475 3.22183 0.841475 3.18406 0.849574C3.14351 0.859983 3.10607 0.879553 3.07475 0.906709L1.20808 2.43658C1.0723 2.54673 0.969162 2.6902 0.909384 2.85216C0.851068 3.01939 0.840049 3.19882 0.877418 3.37164C1.37939 5.7767 2.49863 8.01872 4.13074 9.88853C4.94443 10.8247 5.87526 11.658 6.90144 12.369C7.92597 13.0754 9.03783 13.6531 10.2107 14.0885C10.3755 14.153 10.5553 14.1719 10.7304 14.143C10.9055 14.1141 11.069 14.0386 11.2027 13.9249L13.04 12.4106C13.0723 12.3847 13.0979 12.3518 13.1147 12.3145C13.1311 12.2767 13.1393 12.236 13.1387 12.195C13.1385 12.1544 13.1284 12.1143 13.1094 12.0781C13.0913 12.0416 13.0638 12.0103 13.0294 11.9872C12.5832 11.6513 12.1441 11.305 11.7121 10.9483C11.2827 10.5872 10.856 10.2158 10.4374 9.8288C10.3884 9.78144 10.3224 9.75442 10.2534 9.75346C10.1852 9.75245 10.1189 9.77552 10.0667 9.8184L8.80541 10.8574C8.70209 10.9435 8.58205 11.0087 8.45242 11.0488C8.32278 11.089 8.18617 11.1034 8.05072 11.0911C7.77708 11.0584 7.51604 10.9602 7.29076 10.8054C6.52919 10.3095 5.84405 9.71042 5.25606 9.02619Z" fill="#009FE3"/>
</svg>
